<?xml version="1.0" encoding="UTF-8"?>
<svg width="398px" height="276px" viewBox="0 0 398 276" version="1.1" xmlns="http://www.w3.org/2000/svg" xmlns:xlink="http://www.w3.org/1999/xlink">
    <!-- Generator: Sketch 49.1 (51147) - http://www.bohemiancoding.com/sketch -->
    <title>Fill 1</title>
    <desc>Created with Sketch.</desc>
    <defs></defs>
    <g id="Page-1" stroke="none" stroke-width="1" fill="none" fill-rule="evenodd" opacity="0.14">
        <g id="菜单" transform="translate(-321.000000, -165.000000)" fill="#F39800">
            <g id="v-patten" transform="translate(321.000000, 165.000000)">
                <path d="M129.55245,276 L0,276 L0,80.5193543 C0,60.921988 15.9479374,44.978323 35.5508868,44.978323 C55.1535046,44.978323 71.1014421,60.921988 71.1014421,80.5193543 L71.1014421,201.288439 L135.170112,201.288439 C181.344776,201.288439 225.745495,184.400515 260.193013,153.734953 C294.361953,123.317061 316.249244,81.6966949 321.822466,36.5406601 C322.246634,33.1047884 320.644478,30.7086632 319.651546,29.5863602 C318.640042,28.4425064 316.412411,26.5241474 312.857554,26.5241474 L312.128277,26.5241474 C307.59707,26.5241474 303.743737,29.9686395 303.165355,34.5370924 C298.073344,74.7407373 278.496926,111.766126 248.043357,138.793901 C217.324806,166.056746 177.76372,181.071403 136.647571,181.071403 L90.8430173,181.071403 L90.8430173,56.2282086 C90.8430173,39.849216 77.514378,26.5241474 61.1309964,26.5241474 L13.2656275,26.5241474 C5.93935308,26.5241474 0,20.5863855 0,13.2620737 C0,5.9374304 5.93935308,0 13.2656275,0 L61.1309964,0 C92.1437121,0 117.374272,25.2238011 117.374272,56.2282086 L117.374272,154.547255 L136.647571,154.547255 C171.264889,154.547255 204.5709,141.908167 230.42992,118.958149 C256.076026,96.1971148 272.559563,65.0325678 276.844029,31.2053279 C279.097196,13.4155822 294.266109,0 312.128277,0 L312.857554,0 C323.052521,0 332.773241,4.3801314 339.527767,12.016765 C346.250124,19.617591 349.394409,29.7402003 348.154073,39.7888736 C341.791546,91.3398803 316.819003,138.841313 277.836629,173.54385 C238.524606,208.539478 187.858199,227.812587 135.170112,227.812587 L44.570187,227.812587 L44.570187,80.5193543 C44.570187,75.5474029 40.5241706,71.5024704 35.5508868,71.5024704 C30.5776031,71.5024704 26.5312551,75.5474029 26.5312551,80.5193543 L26.5312551,249.475853 L129.55245,249.475853 C161.524271,249.475853 192.78837,243.221459 222.476181,230.886404 C251.248995,218.931308 277.194241,201.860366 299.590932,180.147036 C322.067548,158.356786 339.735706,133.0806 352.103914,105.021367 C364.953664,75.8700028 371.468745,44.997553 371.468745,13.2620737 C371.468745,5.9374304 377.407766,0 384.734372,0 C392.060979,0 398,5.9374304 398,13.2620737 C398,48.703308 390.726456,83.1744215 376.382665,115.716898 C362.627867,146.921563 343.005683,175.005662 318.060665,199.188721 C293.258585,223.233856 264.524904,242.138942 232.658213,255.379465 C199.726956,269.062278 165.037009,276 129.55245,276" id="Fill-1"></path>
            </g>
        </g>
    </g>
</svg>