<?xml version="1.0" encoding="UTF-8"?>
<svg width="284px" height="197px" viewBox="0 0 284 197" version="1.1" xmlns="http://www.w3.org/2000/svg" xmlns:xlink="http://www.w3.org/1999/xlink">
    <!-- Generator: Sketch 49.1 (51147) - http://www.bohemiancoding.com/sketch -->
    <title>v-patten copy</title>
    <desc>Created with Sketch.</desc>
    <defs>
        <polygon id="path-1" points="0 0 0 197 284 197 284 2.69041256e-14"></polygon>
    </defs>
    <g id="Page-1" stroke="none" stroke-width="1" fill="none" fill-rule="evenodd" opacity="0.14">
        <g id="v-patten-copy">
            <mask id="mask-2" fill="white">
                <use xlink:href="#path-1"></use>
            </mask>
            <g id="Clip-2"></g>
            <path d="M92.4444619,197 L0,197 L0,57.4721478 C0,43.4841726 11.3799352,32.1040929 25.3679695,32.1040929 C39.3557671,32.1040929 50.7357024,43.4841726 50.7357024,57.4721478 L50.7357024,143.67327 L96.4530445,143.67327 C129.4018,143.67327 161.084725,131.619208 185.665366,109.731108 C210.047223,88.0197862 225.66529,58.312496 229.642161,26.0815581 C229.944834,23.6291424 228.801587,21.9188647 228.093063,21.1178006 C227.371286,20.3013542 225.78172,18.9320907 223.245089,18.9320907 L222.7247,18.9320907 C219.491377,18.9320907 216.741762,21.3906594 216.329048,24.6514753 C212.695552,53.3475552 198.72645,79.7750973 176.995762,99.0666611 C155.075992,118.526011 126.846474,129.242994 97.5073119,129.242994 L64.8226556,129.242994 L64.8226556,40.1339025 C64.8226556,28.4430998 55.3117672,18.9320907 43.621113,18.9320907 L9.46592517,18.9320907 C4.23813135,18.9320907 0,14.6939056 0,9.46604537 C0,4.23794851 4.23813135,0 9.46592517,0 L43.621113,0 C65.7507895,0 83.7545059,18.003945 83.7545059,40.1339025 L83.7545059,110.310903 L97.5073119,110.310903 C122.209117,110.310903 145.975215,101.289525 164.42738,84.9085337 C182.727616,68.6624334 194.489738,46.4181734 197.546995,22.2733681 C199.154783,9.57561484 209.978832,0 222.7247,0 L223.245089,0 C230.519889,0 237.456283,3.12639813 242.276095,8.57718371 C247.072953,14.002411 249.316614,21.2276067 248.43155,28.4000293 C243.891455,65.1954943 226.071851,99.1005023 198.255283,123.870067 C170.203487,148.84883 134.049569,162.605361 96.4530445,162.605361 L31.803852,162.605361 L31.803852,57.4721478 C31.803852,53.9233274 28.9167449,51.0361836 25.3679695,51.0361836 C21.8191942,51.0361836 18.9318503,53.9233274 18.9318503,57.4721478 L18.9318503,178.067909 L92.4444619,178.067909 C115.258525,178.067909 137.567581,173.603722 158.751848,164.799353 C179.283203,156.266187 197.796896,144.081493 213.778454,128.583211 C229.817044,113.030025 242.424473,94.9886888 251.250029,74.9609033 C260.419197,54.153589 265.06815,32.1178186 265.06815,9.46604537 C265.06815,4.23794851 269.306044,0 274.534075,0 C279.762105,0 284,4.23794851 284,9.46604537 C284,34.7628684 278.809833,59.3672501 268.574565,82.5950322 C258.759584,104.867927 244.757824,124.913461 226.957862,142.174558 C209.259895,159.337209 188.756464,172.831056 166.017419,182.281719 C142.518733,192.048075 117.765102,197 92.4444619,197" id="Fill-1" fill="#F39800" mask="url(#mask-2)"></path>
        </g>
    </g>
</svg>