<svg width="1024" height="500" xmlns="http://www.w3.org/2000/svg" xmlns:xlink="http://www.w3.org/1999/xlink"><defs><linearGradient x1="56.429%" y1="0%" x2="54.872%" y2="129.551%" id="b"><stop stop-color="#FEDE2A" offset="0%"/><stop stop-color="#F5A337" offset="100%"/></linearGradient><path id="a" d="M0 0h1024v500H0z"/><path id="d" d="M0 0v487h873V0z"/></defs><g fill="none" fill-rule="evenodd"><mask id="c" fill="#fff"><use xlink:href="#a"/></mask><use fill="url(#b)" xlink:href="#a"/><g opacity=".175" mask="url(#c)"><g transform="translate(76 81)"><mask id="e" fill="#fff"><use xlink:href="#d"/></mask><path d="M284.17 487H0V142.076c0-34.58 34.981-62.712 77.98-62.712 42.997 0 77.979 28.132 77.979 62.712v213.096H296.49c101.283 0 198.674-29.799 274.234-83.908 74.948-53.672 122.957-127.11 135.182-206.788.93-6.063-2.584-10.29-4.762-12.271-2.218-2.018-7.105-5.403-14.902-5.403h-1.6c-9.939 0-18.391 6.077-19.66 14.138-11.169 70.94-54.11 136.27-120.908 183.96-67.38 48.106-154.156 74.6-244.343 74.6h-100.47V99.213c0-28.9-29.237-52.412-65.173-52.412H29.098C13.028 46.802 0 36.325 0 23.4S13.028 0 29.098 0h104.99c68.026 0 123.369 44.507 123.369 99.214v173.484h42.275c75.932 0 148.988-22.302 205.709-62.797 56.253-40.162 92.41-95.152 101.807-154.84C612.191 23.672 645.463 0 684.643 0h1.6c22.362 0 43.684 7.729 58.5 21.203 14.745 13.412 21.642 31.273 18.922 49.004-13.956 90.962-68.733 174.777-154.24 236.01-86.23 61.75-197.364 95.757-312.934 95.757H97.763V142.076c0-8.773-8.875-15.91-19.783-15.91-10.909 0-19.785 7.137-19.785 15.91v298.122H284.17c70.13 0 138.706-11.035 203.825-32.8 63.112-21.095 120.023-51.217 169.149-89.53 49.302-38.449 88.056-83.048 115.185-132.559 28.186-51.437 42.477-105.911 42.477-161.908C814.805 10.477 827.832 0 843.902 0S873 10.477 873 23.4c0 62.537-15.954 123.36-47.417 180.782-30.17 55.06-73.211 104.614-127.927 147.285-54.403 42.428-117.43 75.785-187.328 99.148C438.095 474.758 362.003 487 284.17 487" fill="#F39800" mask="url(#e)"/></g></g></g></svg>