<svg width="56" height="58" xmlns="http://www.w3.org/2000/svg"><g fill="#FFF" fill-rule="evenodd"><path d="M41.758 44.03h12.36V31.736h-12.36V44.03zm-1.819-6.19v-6.798c.001-.754.316-1.087 1.068-1.088 4.622-.004 9.245-.004 13.867 0 .72.001 1.057.345 1.058 1.068.004 4.572.004 9.145 0 13.718 0 .735-.35 1.067-1.097 1.067-4.595.002-9.19.002-13.785 0-.802 0-1.11-.314-1.11-1.129V37.84zM8.868 32.642L2.42 44.016h12.897l-6.45-11.374M8.86 45.799l-7.803-.001c-.934 0-1.322-.642-.866-1.448 2.591-4.58 5.188-9.156 7.779-13.736.202-.357.46-.61.9-.607.44.004.7.26.901.614 2.566 4.532 5.134 9.062 7.702 13.593.047.083.097.165.139.25.334.686-.057 1.33-.824 1.332-2.642.006-5.285.002-7.928.003M27.517 1.764c-3.394 0-6.223 2.769-6.224 6.093-.002 3.452 2.769 6.235 6.207 6.237 3.4.002 6.228-2.78 6.232-6.134.005-3.4-2.8-6.196-6.215-6.196m7.978 6.299c.003 4.233-3.645 7.803-7.992 7.789-4.572-.015-8.05-3.689-7.99-8.16C19.57 3.531 23.193 0 27.52 0c4.444 0 7.972 3.567 7.975 8.063M18.134 10.088c-.34.188-.65.358-.958.53-4.88 2.717-8.21 6.697-9.958 11.98-.821 2.484-1.098 5.029-.978 7.628.027.574.019.574-.57.597-.11.004-.22.006-.33.014-.99.071-.849.209-.893-.822-.178-4.125.705-8.03 2.635-11.68 1.555-2.94 3.677-5.437 6.376-7.41 1.092-.797 2.285-1.457 3.435-2.174.136-.085.294-.135.473-.215l.768 1.552M15.935 46.84c.605.332 1.17.665 1.755.958 1.673.838 3.4 1.54 5.248 1.901 2.139.419 4.286.591 6.477.404a21.08 21.08 0 0 0 7.156-1.923c.88-.41 1.714-.922 2.555-1.411.246-.143.38-.138.528.111.18.305.384.599.596.884.163.22.113.347-.109.489-2.034 1.3-4.201 2.29-6.548 2.913-2.47.655-4.968.903-7.513.733-3.867-.26-7.47-1.342-10.763-3.396-.23-.144-.316-.265-.138-.513.26-.365.494-.749.756-1.15M30.85 37.11l-1.376 1.393c-.517-.537-1.035-1.08-1.56-1.617-.316-.323-.651-.628-.963-.956-.268-.282-.437-.617-.25-1.004.579-1.19 1.172-2.37 1.785-3.607l1.587.78-.96 1.953c1.547-.044 3.64-2.016 4.309-3.98.792-2.324.041-5.5-2.785-7.244l.873-1.509c2.408 1.486 3.817 3.58 3.94 6.337.185 4.213-2.02 6.847-5.964 8.251l1.363 1.202M24.39 33.565l-.836 1.424c-1.867-.785-3.803-3.36-4.01-6.162-.28-3.776 2.04-7.195 6.043-8.346-.247-.248-.453-.468-.672-.672-.23-.213-.474-.412-.785-.68.447-.413.81-.765 1.196-1.092.062-.052.268-.035.332.027.835.813 1.66 1.636 2.478 2.465.25.253.349.58.192.907-.574 1.192-1.169 2.373-1.785 3.616l-1.594-.79.97-1.942c-1.518.185-3.514 1.732-4.275 3.804-.82 2.23-.25 5.579 2.747 7.441M36.897 10.06l.757-1.523c7.457 3.416 12.64 11.314 12.889 19.609-.501.023-1.005.063-1.509.054-.088-.002-.231-.2-.249-.323-.124-.863-.181-1.737-.335-2.595-.788-4.375-2.804-8.12-5.974-11.248-1.568-1.549-3.327-2.85-5.323-3.819-.072-.035-.138-.083-.256-.155"/></g></svg>