<svg width="56" height="58" xmlns="http://www.w3.org/2000/svg" xmlns:xlink="http://www.w3.org/1999/xlink"><defs><path id="a" d="M55.849 47.135V.071H0v47.064z"/></defs><g fill="none" fill-rule="evenodd"><g transform="translate(0 3.397)"><mask id="b" fill="#fff"><use xlink:href="#a"/></mask><path d="M45.789 7.876h6.16c-.792-.508-1.524-.894-2.155-1.405-.665-.539-1.192-.532-1.854.002-.631.51-1.362.896-2.151 1.403zm6.171-6.04H45.78c1.04.667 1.988 1.282 2.948 1.875.085.053.278.006.382-.058.676-.417 1.342-.852 2.012-1.28l.84-.537zm-8.286.73v4.589l3.579-2.288-3.58-2.302zM54.07 7.158v-4.6l-3.587 2.31 3.587 2.29zm-10.41 8.553h10.42V9.686H43.66v6.026zM1.78 31.468c-.01.145-.024.251-.024.357-.001 4.388.003 8.777-.008 13.165-.001.362.144.414.457.413 3.176-.01 6.352-.013 9.528.003.393.002.5-.107.5-.497-.014-4.334-.009-8.668-.01-13.003 0-.141-.016-.283-.025-.438H1.781zm20.936.009c-.009.132-.021.226-.021.32 0 4.401.002 8.803-.007 13.205-.001.334.119.402.427.401 3.163-.01 6.326-.006 9.488-.006.56 0 .56 0 .56-.54V31.477H22.718zm31.345 13.9V31.476H43.65c-.007.129-.016.235-.016.34-.001 4.39.003 8.782-.009 13.173 0 .339.12.396.422.395 3.205-.009 6.41-.005 9.615-.005h.399zM33.164 8.76c0-2.16-.005-4.322.006-6.483.002-.33-.06-.477-.441-.475-3.204.015-6.409.012-9.613.002-.311 0-.427.079-.427.406.009 4.377.009 8.753 0 13.13 0 .326.105.408.42.406 3.205-.01 6.41-.012 9.614.002.369.002.45-.119.448-.463-.013-2.175-.007-4.35-.007-6.525zM7.924 26.65l1.014-1.099 1.17 1.243-2.84 2.864c.246.014.37.027.494.027 1.596.002 3.192.001 4.788.002.136 0 .271-.002.406.008.712.05 1.013.37 1.013 1.086.002 2.081.001 4.162.001 6.243v.48h3.932l-1.01-1.064 1.184-1.128 2.854 2.8c.007-.176.019-.314.019-.453l.001-6.891c0-.717.29-1.036 1.016-1.07.554-.026 1.11-.011 1.664-.011h9.82c.148 0 .298-.003.446.008.712.05 1.012.37 1.012 1.087.002 2.08.001 4.162.001 6.243v.479h3.933l-1.012-1.066 1.184-1.13 2.86 2.795c.008-.163.02-.3.02-.437v-6.932c0-.724.307-1.033 1.04-1.034 3.95-.002 7.9-.002 11.849 0 .76 0 1.054.298 1.054 1.063.002 5.108.002 10.216 0 15.324 0 .748-.306 1.044-1.068 1.044H42.961c-.776 0-1.066-.293-1.066-1.082-.002-2.418 0-4.837 0-7.345l-2.896 2.873-1.234-1.239 1.082-.857-.083-.133H34.91V46.046c0 .741-.306 1.08-1.047 1.083-3.963.008-7.926.008-11.89-.001-.718-.002-1.021-.338-1.022-1.06v-7.345l-2.88 2.852-1.259-1.283 1.11-.818-.104-.138H13.97v6.696c0 .764-.306 1.096-1.074 1.097-3.95.008-7.899.008-11.848 0-.74-.002-1.037-.334-1.037-1.087 0-5.054.01-10.108-.011-15.161-.004-.881.404-1.198 1.198-1.196 1.664.004 3.327.001 4.991.001h.485l-2.821-2.849 1.188-1.253.95 1.072.12-.04v-1.097c-.003-.912.195-1.77.71-2.535.831-1.236 1.99-1.91 3.485-1.986.215-.011.432-.007.649-.007 11.375 0 22.75-.002 34.126.002 1.218 0 2.15-.455 2.69-1.583.286-.597.225-1.23.2-1.906h-.458c-1.515 0-3.03.003-4.544 0-.774-.003-1.08-.313-1.08-1.088V9.101l-2.977 2.86c-.302-.32-.654-.67-.975-1.048-.05-.059.006-.273.08-.357.242-.28.516-.535.777-.799l-.043-.113h-.543c-.947 0-1.894.018-2.84-.01-.387-.01-.47.123-.467.484.016 2.095.009 4.19.008 6.284-.001.777-.324 1.102-1.116 1.102-3.922.003-7.845.003-11.767 0-.766 0-1.076-.322-1.076-1.094V9.062l-2.89 2.861-1.176-1.2 1.049-.949a15.606 15.606 0 0 1-.055-.102H12.25V7.928h5.676l-1.135-.994 1.27-1.28c.93.908 1.884 1.837 2.889 2.816v-.474-6.85c0-.784.286-1.071 1.082-1.072 3.936-.002 7.872-.002 11.808 0 .746 0 1.067.318 1.068 1.057.003 2.122.008 4.243-.006 6.365-.003.34.102.441.436.435 1.015-.018 2.03-.006 3.044-.007.117 0 .234-.017.49-.036-.333-.34-.578-.611-.847-.857-.195-.179-.198-.31-.007-.496.318-.311.612-.646.88-.934l2.968 2.93c.01-.243.022-.382.022-.521.001-2.297 0-4.595.002-6.892 0-.737.297-1.045 1.026-1.045 3.963-.003 7.926-.002 11.889 0 .727 0 1.042.313 1.043 1.034v15.364c0 .706-.33 1.03-1.056 1.032-1.515.005-3.03.001-4.545.001h-.466c-.03.493-.034.962-.09 1.425-.265 2.166-2.116 3.79-4.314 3.79-11.537.002-23.075.001-34.613.002-1.496 0-2.57.736-2.822 2.046-.113.591-.019 1.222-.019 1.884z" fill="#FFF" mask="url(#b)"/></g><path d="M1.776 13.016H8.7v-1.677H1.776v1.677zm3.469-3.453c1.393 0 2.785-.002 4.178 0 .743.002 1.055.317 1.057 1.067a488.46 488.46 0 0 1 0 3.16c-.004.654-.312.995-.959.997-2.853.01-5.706.01-8.558 0-.651-.003-.949-.337-.951-1-.004-1.081-.004-2.162 0-3.242.002-.642.332-.978.974-.98 1.42-.006 2.84-.002 4.259-.002zM1.79 6.051h6.928V4.373H1.79v1.678zm3.457-3.46c1.392 0 2.785-.003 4.178 0 .727 0 1.052.316 1.054 1.027a404.71 404.71 0 0 1 0 3.201c-.003.652-.313.993-.96.995-2.853.01-5.706.01-8.559 0C.31 7.812.014 7.476.012 6.81.008 5.731.008 4.65.012 3.57c.002-.64.333-.975.976-.977 1.42-.006 2.84-.002 4.259-.002zM1.79 20.008h6.917v-1.702H1.791v1.702zm3.451-3.472H9.42c.745.002 1.059.316 1.06 1.063.003 1.04.003 2.08 0 3.12-.001.712-.299 1.041-.995 1.043-2.826.008-5.651.008-8.477 0-.7-.002-.994-.325-.996-1.04a707.424 707.424 0 0 1 0-3.16c.002-.7.317-1.023 1.012-1.025 1.406-.004 2.812-.001 4.218-.001zM54.13 31.329h1.686v-1.702h-1.687zM50.646 31.336h1.693v-1.713h-1.693zM47.143 31.326h1.706V29.63h-1.706zM43.657 31.34h1.693v-1.717h-1.693zM40.167 31.332h1.693v-1.709h-1.693zM36.689 31.335h1.684V29.62h-1.684zM33.19 31.341h1.685V29.63h-1.684zM29.701 31.34h1.684v-1.71h-1.684zM26.211 31.341h1.684V29.63h-1.684zM22.724 31.339h1.694v-1.714h-1.694zM19.239 31.335h1.685v-1.713H19.24zM15.742 31.34h1.684v-1.71h-1.684zM12.262 31.346h1.68v-1.724h-1.68zM7.886 53.982h1.691v-1.669H7.886zM11.386 53.986h1.684v-1.677h-1.684zM14.883 53.979h1.684v-1.677h-1.684zM18.368 53.984h1.681V52.31h-1.681zM21.858 53.983h1.684v-1.668h-1.684zM25.354 53.991h1.668v-1.687h-1.668zM28.843 53.978h1.684v-1.676h-1.684zM32.328 53.983h1.684v-1.668h-1.684zM35.802 53.985h1.683V52.31h-1.683zM39.303 53.988h1.675v-1.681h-1.675zM42.795 53.985h1.684V52.31h-1.684zM46.28 53.98h1.684V52.3h-1.685zM49.762 53.984h1.682V52.31h-1.682zM53.253 53.983h1.694v-1.671h-1.694zM4.403 53.989H6.08v-1.683H4.403zM.912 53.977h1.695v-1.673H.912zM11.393 1.695h1.67V.005h-1.67zM14.865 1.685h1.692V.015h-1.692zM18.375 1.682h1.67V0h-1.67zM21.842 1.687h1.683V.013h-1.683zM25.34 1.681h1.683V.005H25.34zM28.841 1.697h1.673V.004h-1.673zM32.334 1.68h1.682V.007h-1.682zM35.817 1.686h1.68V.004h-1.68zM39.296 1.675h1.684V.007h-1.684zM42.788 1.681h1.685V.005h-1.685zM46.291 1.682h1.684V.005h-1.684zM49.769 1.68h1.682V.006h-1.682zM53.26 1.69h1.68V.007h-1.68zM24.47 47.016h6.92v-1.69h-6.92zM24.454 12.138h6.937v-1.664h-6.937zM24.465 8.655h6.942v-1.67h-6.942zM24.466 15.627h6.94v-1.669h-6.94zM29.127 41.802l-1.199-2.4-1.193 2.4h2.392zm-1.239 1.747c-.824 0-1.649.006-2.473-.001-.823-.008-1.194-.604-.825-1.35.83-1.68 1.677-3.352 2.511-5.03.174-.349.43-.536.828-.536.4 0 .656.19.829.537.836 1.677 1.681 3.35 2.511 5.03.368.743-.004 1.341-.826 1.349-.852.007-1.703.001-2.555.001z" fill="#FFF"/><path fill="#FFF" d="M24.47 47.016h6.92v-1.69h-6.92zM45.384 47.016h6.92v-1.69h-6.92zM6.971 38.333c-.954.008-1.732.786-1.722 1.722.01.983.776 1.764 1.73 1.764.94 0 1.744-.787 1.748-1.711.005-1-.77-1.782-1.756-1.775m.008 5.214C5.034 43.544 3.5 41.994 3.5 40.03c0-1.89 1.609-3.47 3.512-3.452 1.922.02 3.475 1.61 3.466 3.549-.01 1.865-1.603 3.422-3.5 3.419M3.526 47.005h6.942v-1.669H3.526zM45.41 16.505h2.554v-1.693H45.41zM49.765 16.507h2.573v-1.69h-2.573zM47.562 38.402a.565.565 0 0 0-.558.557v2.56c0 .301.255.556.558.556h2.561a.565.565 0 0 0 .558-.557V38.96a.565.565 0 0 0-.558-.557h-2.561zm2.561 5.295h-2.561a2.183 2.183 0 0 1-2.182-2.179V38.96c0-1.201.979-2.179 2.182-2.179h2.561c1.203 0 2.181.978 2.181 2.18v2.558a2.183 2.183 0 0 1-2.181 2.179z"/></g></svg>