<svg width="55" height="58" xmlns="http://www.w3.org/2000/svg"><g fill="#FFF" fill-rule="evenodd"><path d="M1.72 27.583c-.012 14.27 11.719 25.926 26.16 25.699 14.025-.22 25.37-11.647 25.395-25.648C53.302 13.351 41.63 1.847 27.476 1.88 13.03 1.912 1.702 13.593 1.72 27.583M0 27.536C-.02 12.477 12.3.197 27.465.159 42.61.121 55.001 12.445 54.992 27.605c-.01 15.057-12.195 27.17-27.102 27.391C12.443 55.226-.032 42.761 0 27.536"/><path d="M15.513 41.31h1.685c0 .263-.004.522.001.781.012.557.304.883.8.9.521.019.879-.29.906-.844a16.75 16.75 0 0 0-.003-1.711c-.03-.539-.334-.809-.872-.848-1.588-.118-2.56-1.14-2.568-2.73-.004-.662-.007-1.33.059-1.987.077-.775.516-1.375 1.185-1.746.364-.202.548-.407.474-.82-.02-.115-.003-.236-.003-.388h1.679c.113.449.51 1.114.89 1.451.833.74.959 1.694.853 2.747h-1.685c0-.242.012-.49-.002-.737-.032-.59-.409-.97-.917-.939-.495.03-.807.42-.803.999.004.504 0 1.009.007 1.513.008.567.279.858.837.914 1.703.17 2.594 1.15 2.585 2.87-.003.662.008 1.33-.084 1.983-.102.737-.555 1.293-1.218 1.628-.326.164-.451.359-.407.707.02.165-.01.336-.02.54-.515 0-.993.01-1.469-.011-.084-.004-.211-.135-.233-.228-.04-.163.02-.35-.022-.513-.037-.142-.124-.32-.243-.384-1.165-.64-1.692-1.784-1.412-3.146M39.539 13.851H37.8c0-.276.007-.537-.002-.797-.017-.527-.349-.874-.83-.88-.493-.006-.856.319-.876.838-.023.57-.025 1.142.001 1.712.025.544.303.824.86.847 1.523.062 2.64 1.248 2.588 2.855-.02.61.004 1.224-.06 1.829-.086.82-.535 1.448-1.264 1.818-.335.17-.417.368-.402.706.023.525.006.525-.505.527h-.32c-.84 0-.835-.001-.916-.81-.01-.106-.1-.251-.192-.296-1.415-.687-1.628-1.93-1.47-3.155h1.675c0 .265-.016.54.004.812.04.56.38.882.888.867.5-.014.813-.364.82-.93.007-.531.01-1.063-.001-1.593-.01-.549-.317-.857-.862-.893-1.583-.103-2.565-1.141-2.559-2.728.003-.714-.011-1.436.083-2.142.095-.72.54-1.275 1.185-1.606.35-.18.505-.386.438-.766-.067-.383.098-.523.483-.486a6.3 6.3 0 0 0 .917.003c.264-.014.379.092.337.348-.076.46.102.713.526.955.81.463 1.156 1.25 1.19 2.17.01.261.002.523.002.795M34.399 41.305h1.687c0 .273-.012.534.002.793.033.586.367.91.902.894.51-.016.805-.35.81-.932.006-.518.008-1.037 0-1.554-.01-.575-.306-.878-.88-.918-1.562-.11-2.548-1.149-2.541-2.706.003-.729-.01-1.464.087-2.183.1-.737.571-1.285 1.229-1.622.308-.159.442-.335.392-.672-.023-.153-.004-.312-.004-.495h1.668c.014.015.048.036.046.053-.07.62.179.98.732 1.337.912.59 1.072 1.594 1.001 2.62-.005.077-.134.204-.21.207-.488.018-.978.01-1.519.01 0-.294.006-.542-.001-.79-.016-.526-.347-.892-.814-.909-.484-.018-.875.344-.895.873-.021.557-.021 1.116 0 1.673.02.551.318.83.884.883 1.617.152 2.555 1.163 2.563 2.784.003.637.008 1.278-.06 1.909-.086.787-.52 1.397-1.217 1.766-.343.182-.511.38-.44.766.074.396-.081.55-.498.51-.392-.038-.79-.009-1.174-.009a3.04 3.04 0 0 0-.912-1.535c-.848-.74-.93-1.703-.838-2.753M15.514 19.023c.5 0 .978-.011 1.455.01.08.004.204.145.217.235.034.221.002.451.019.676.033.442.338.747.762.78.453.035.861-.216.896-.663a14.21 14.21 0 0 0 .005-2.064c-.03-.442-.37-.657-.884-.691-1.177-.079-2.104-.718-2.378-1.797-.276-1.09-.257-2.218.006-3.313.147-.61.563-1.097 1.137-1.374.343-.165.49-.366.428-.729-.067-.394.076-.562.496-.514.303.035.612.016.918.004.238-.009.348.076.328.322-.013.159-.026.324.006.477.024.11.097.254.19.3 1.089.547 1.547 1.443 1.51 2.628-.005.17 0 .34 0 .535h-1.71c0-.243.01-.49-.002-.734-.03-.607-.372-.954-.908-.936-.511.018-.804.371-.807.98-.002.504-.006 1.01.002 1.514.009.58.263.88.836.9 1.62.06 2.674 1.371 2.591 2.844-.038.674-.002 1.356-.09 2.022-.098.741-.556 1.297-1.214 1.633-.327.166-.432.353-.414.701.028.535.006.536-.537.536-.293 0-.587-.01-.88.003-.247.013-.337-.09-.317-.327.013-.146.031-.3-.006-.436-.037-.132-.113-.305-.222-.356-1.24-.587-1.642-1.83-1.433-3.166M33.542 28.41h1.68v-1.66h-1.68zM36.98 28.41h1.679v-1.66H36.98zM40.406 28.424h1.688v-1.686h-1.688zM43.848 28.416h1.678V26.73h-1.678zM47.29 28.41h1.683v-1.662H47.29zM50.729 28.424h1.666V26.75H50.73zM26.65 31.84h1.685v-1.666H26.65zM26.656 35.276h1.69v-1.683h-1.69zM26.663 38.71h1.673v-1.682h-1.673zM26.664 42.123h1.686v-1.667h-1.686zM26.655 45.56h1.69v-1.685h-1.69zM26.667 48.975h1.68v-1.66h-1.68zM26.657 52.418h1.686v-1.686h-1.686zM30.093 28.423h1.689v-1.686h-1.69zM26.655 28.423h1.676v-1.686h-1.676zM23.229 28.41h1.68V26.75h-1.68zM19.781 28.42h1.69v-1.682h-1.69zM16.34 28.41h1.681v-1.662H16.34zM12.902 28.411h1.682v-1.663h-1.682zM9.465 28.41h1.68v-1.661h-1.68zM6.027 28.41h1.682v-1.662H6.027zM2.598 28.416h1.678V26.73H2.598zM26.648 24.987h1.69v-1.67h-1.69zM26.668 21.568h1.663v-1.673h-1.663zM26.653 18.128h1.68v-1.662h-1.68zM26.652 14.7h1.68V13.04h-1.68zM26.666 11.274h1.667V9.596h-1.667zM26.655 7.857h1.69V6.172h-1.69zM26.655 4.43h1.69V2.757h-1.69z"/></g></svg>