<svg width="55" height="58" xmlns="http://www.w3.org/2000/svg"><g fill="#FFF" fill-rule="evenodd"><path d="M37.553 56.188c-9.759.001-19.518-.02-29.277.013-3.162.012-5.51-2.118-6.167-4.734-.054-.215-.091-.434-.142-.678h33.26c.268 2.116 1.191 3.898 2.85 5.37-.242.014-.383.029-.524.03m13.394-30.275v-.417H49.2v.617c0 7.789.003 15.578-.005 23.367 0 .53-.035 1.066-.123 1.587-.757 4.515-6.215 6.67-9.702 3.838-1.54-1.252-2.354-2.89-2.432-4.916-.02-.518-.241-.893-.614-.977-.222-.05-.458-.05-.688-.05-9.3-.003-18.6-.003-27.9-.003h-.539V1.973h26.382c5.051 0 10.102.004 15.153-.008.372-.001.483.1.477.49-.023 1.371-.009 2.745-.009 4.117v.803h1.747V1.447c0-1.032-.245-1.282-1.256-1.282H6.678c-.122 0-.244-.004-.366.002-.548.025-.882.367-.904.926-.006.153-.002.308-.002.462V48.96H4.73c-1.195 0-2.39-.01-3.584.004-.689.007-.996.345-.983 1.045.006.308.012.619.056.922.596 4.143 3.806 7.054 7.86 7.06 11.648.015 23.297.005 34.947.004 1.269 0 2.485-.264 3.601-.894 2.832-1.596 4.305-4.07 4.314-7.402.02-7.929.006-15.858.006-23.786"/><path d="M51.1 20.822C45.989 26.25 40.879 31.68 35.758 37.1a.888.888 0 0 1-.567.25c-.795.028-1.591.012-2.462.012l18.04-19.126-1.254-1.362-17.938 19.098-.13-.067c0-.707.033-1.417-.01-2.122-.032-.541.136-.912.5-1.296 6.526-6.91 13.038-13.836 19.551-20.76.116-.124.204-.278.332-.456 1.085 1.58 1.536 3.24 1.364 5.079-.164 1.764-.913 3.23-2.082 4.472m1.572-11.376c-.522-.585-.982-.595-1.519-.026-7.024 7.461-14.046 14.924-21.073 22.38-.306.325-.437.68-.433 1.136.014 1.51-.002 3.02.01 4.529.004.315-.07.544-.29.77-.822.845-1.631 1.706-2.428 2.58-.218.238-.437.337-.753.336-4.897-.01-9.794-.007-14.692-.007H11V43h19.525v-1.877H29.13c.561-.586 1.029-1.106 1.533-1.581.165-.156.426-.272.644-.276 1.407-.024 2.814-.027 4.221-.005.508.008.888-.17 1.245-.55 4.1-4.372 8.209-8.732 12.315-13.095 1.17-1.244 2.36-2.467 3.505-3.737 3.184-3.532 3.21-8.929.08-12.433M27.01 12.192c-1.334.012-2.405-1.19-2.419-2.713-.012-1.446 1.1-2.683 2.413-2.681 1.32.002 2.406 1.238 2.405 2.74 0 1.43-1.096 2.642-2.4 2.654M27.003 5C24.8 4.999 23 7 23 9.45c0 2.533 1.766 4.547 3.99 4.55 2.191.003 3.999-2.004 4.01-4.451.012-2.516-1.774-4.547-3.997-4.549"/><path d="M14 21h23v-2H14zM11 25h23v-2H11zM11 32h16v-2H11zM32 46h14v-2H32zM10 12h12v-2H10zM10 16h12v-2H10zM10 8h12V6H10zM21 28h10v-2H21zM11 28h8v-2h-8z"/></g></svg>