<?xml version="1.0" encoding="UTF-8"?>
<svg width="155px" height="443px" viewBox="0 0 155 443" version="1.1" xmlns="http://www.w3.org/2000/svg" xmlns:xlink="http://www.w3.org/1999/xlink">
    <!-- Generator: Sketch 49.1 (51147) - http://www.bohemiancoding.com/sketch -->
    <title>Group 4 Copy</title>
    <desc>Created with Sketch.</desc>
    <defs>
        <polygon id="path-1" points="55.3537227 48.9867855 55.3537227 0.0737416195 0 0.0737416195 4.36066609e-21 48.9867855"></polygon>
        <polygon id="path-3" points="0 55.8675497 55.503663 55.8675497 55.503663 0 0 0"></polygon>
        <polygon id="path-5" points="0 56.0635762 55.503663 56.0635762 55.503663 0 0 0"></polygon>
        <polygon id="path-7" points="0 56.0635762 55.503663 56.0635762 55.503663 0 0 0"></polygon>
        <polygon id="path-9" points="0 52.9271523 55.503663 52.9271523 55.503663 0 0 0"></polygon>
        <polygon id="path-11" points="0 54.5978326 51.1217949 54.5978326 51.1217949 0 0 0"></polygon>
    </defs>
    <g id="Page-1" stroke="none" stroke-width="1" fill="none" fill-rule="evenodd">
        <g id="Group-4-Copy">
            <g id="Path-8" transform="translate(90.500000, 74.500000) rotate(90.000000) translate(-90.500000, -74.500000) translate(76.000000, 70.000000)" stroke="#FFFFFF" stroke-linejoin="round">
                <g transform="translate(14.500000, 4.500000) scale(1, -1) translate(-14.500000, -4.500000) ">
                    <path d="M16.4378359,4.5 L0,4.5" stroke-linecap="round"></path>
                    <polygon id="Triangle-2" transform="translate(24.664500, 4.500000) rotate(90.000000) translate(-24.664500, -4.500000) " points="24.6645 1.125 28.3185 7.875 21.0105 7.875"></polygon>
                </g>
            </g>
            <g id="Path-8-Copy" transform="translate(90.500000, 172.500000) rotate(90.000000) translate(-90.500000, -172.500000) translate(76.000000, 168.000000)" stroke="#FFFFFF" stroke-linejoin="round">
                <g id="Path-8" transform="translate(14.500000, 4.500000) scale(1, -1) translate(-14.500000, -4.500000) ">
                    <path d="M16.4378359,4.5 L0,4.5" stroke-linecap="round"></path>
                    <polygon id="Triangle-2" transform="translate(24.664500, 4.500000) rotate(90.000000) translate(-24.664500, -4.500000) " points="24.6645 1.125 28.3185 7.875 21.0105 7.875"></polygon>
                </g>
            </g>
            <g id="Path-8-Copy-2" transform="translate(90.500000, 267.500000) rotate(90.000000) translate(-90.500000, -267.500000) translate(76.000000, 263.000000)" stroke="#FFFFFF" stroke-linejoin="round">
                <g id="Path-8" transform="translate(14.500000, 4.500000) scale(1, -1) translate(-14.500000, -4.500000) ">
                    <path d="M16.4378359,4.5 L0,4.5" stroke-linecap="round"></path>
                    <polygon id="Triangle-2" transform="translate(24.664500, 4.500000) rotate(90.000000) translate(-24.664500, -4.500000) " points="24.6645 1.125 28.3185 7.875 21.0105 7.875"></polygon>
                </g>
            </g>
            <g id="Path-8-Copy-3" transform="translate(90.500000, 370.500000) rotate(90.000000) translate(-90.500000, -370.500000) translate(76.000000, 366.000000)" stroke="#FFFFFF" stroke-linejoin="round">
                <g id="Path-8" transform="translate(14.500000, 4.500000) scale(1, -1) translate(-14.500000, -4.500000) ">
                    <path d="M16.4378359,4.5 L0,4.5" stroke-linecap="round"></path>
                    <polygon id="Triangle-2" transform="translate(24.664500, 4.500000) rotate(90.000000) translate(-24.664500, -4.500000) " points="24.6645 1.125 28.3185 7.875 21.0105 7.875"></polygon>
                </g>
            </g>
            <g id="Group">
                <g id="Page-1" transform="translate(1.460623, 291.099338)">
                    <g id="Group-3" transform="translate(0.000000, 3.809151)">
                        <mask id="mask-2" fill="white">
                            <use xlink:href="#path-1"></use>
                        </mask>
                        <g id="Clip-2"></g>
                        <path d="M45.3828194,8.18527763 L51.4882223,8.18527763 C50.7032879,7.6572637 49.9777183,7.2559866 49.3522162,6.72493908 C48.6930901,6.16524095 48.1716774,6.1726564 47.5152862,6.72763561 C46.8893014,7.2564922 46.1655015,7.6587805 45.3828194,8.18527763 Z M51.4996448,1.90860266 L45.3728448,1.90860266 C46.4042477,2.6011048 47.3433053,3.24001345 48.2952334,3.85701281 C48.3795346,3.91178604 48.5704994,3.86274293 48.6733018,3.79634093 C49.3440113,3.36287402 50.0039418,2.91137408 50.6675725,2.46594133 C50.9185456,2.29740832 51.1698405,2.1293809 51.4996448,1.90860266 Z M43.2867115,2.66615855 L43.2867115,7.43597986 C44.490417,6.62921233 45.6402277,5.85851086 46.8341195,5.05831612 C45.6188306,4.23874008 44.4754552,3.46787009 43.2867115,2.66615855 Z M53.5912481,7.43985612 L53.5912481,2.66009136 C52.388347,3.47225194 51.2391798,4.2480094 50.0357961,5.06050705 C51.2432018,5.86845431 52.3878643,6.63443685 53.5912481,7.43985612 Z M43.2722323,16.3294669 L53.5997747,16.3294669 L53.5997747,10.066106 L43.2722323,10.066106 L43.2722323,16.3294669 Z M1.76530607,32.7043029 C1.75500974,32.8553085 1.74117404,32.965192 1.74117404,33.0752441 C1.74020876,37.6359159 1.74406988,42.1967563 1.73329091,46.7574281 C1.73232563,47.1334253 1.87663515,47.1876929 2.18600775,47.1866817 C5.33411116,47.1770753 8.48221457,47.1735362 11.6301571,47.1900524 C12.019648,47.1920748 12.1259898,47.078315 12.1248637,46.6736672 C12.1121541,42.1691169 12.1171414,37.664398 12.1158544,33.1596791 C12.1158544,33.0125498 12.1000881,32.8654205 12.0909179,32.7043029 L1.76530607,32.7043029 Z M22.515632,32.7132352 C22.5067836,32.8507581 22.4947176,32.9483387 22.4947176,33.0455823 C22.4939132,37.6202424 22.4969699,42.1952395 22.4876389,46.7698996 C22.4868345,47.1167405 22.6058858,47.1881985 22.9113973,47.1871873 C26.0461476,47.1767383 29.1807371,47.1807831 32.3153266,47.1807831 C32.8695588,47.1807831 32.8703632,47.1809516 32.8703632,46.6190625 C32.870685,42.1564769 32.8705241,37.6940598 32.8705241,33.2313056 L32.8705643,32.7132352 L22.515632,32.7132352 Z M53.5827214,47.1605591 L53.5827214,32.7118869 L43.2638665,32.7118869 C43.2575922,32.8455336 43.2477785,32.9554171 43.2477785,33.0649636 C43.2469741,37.6283319 43.2509961,42.1918688 43.2395736,46.7552372 C43.2386083,47.1078083 43.3578206,47.167469 43.6575403,47.1664578 C46.8341195,47.1568514 50.0110205,47.1605591 53.1877606,47.1605591 L53.5827214,47.1605591 Z M32.8705241,9.10462521 C32.8705241,6.85841723 32.8650542,4.61220924 32.8761549,2.36616979 C32.8777637,2.02253097 32.8167901,1.87068273 32.4387217,1.87253659 C29.2629469,1.88804163 26.0868503,1.8853451 22.9107538,1.87523312 C22.6026682,1.87422192 22.4876389,1.95646603 22.4881215,2.29690272 C22.4966482,6.84527165 22.496809,11.3936406 22.4876389,15.941841 C22.4869953,16.2812665 22.592211,16.3662071 22.9049621,16.3650274 C26.0808977,16.3542413 29.2569943,16.3520503 32.43293,16.3670498 C32.7986107,16.3687351 32.8793725,16.243178 32.8774419,15.8850454 C32.8637671,13.6248491 32.8705241,11.3646529 32.8705241,9.10462521 Z M7.8528513,27.6978613 C8.19439993,27.3098983 8.51648205,26.943676 8.85851332,26.5548704 C9.30205998,27.048335 9.67739345,27.4657913 10.019103,27.8461703 C9.12830939,28.7881013 8.2075921,29.761548 7.20386064,30.8231374 C7.447755,30.8377998 7.57050658,30.851451 7.69325816,30.8516195 C9.27535387,30.8531363 10.8572887,30.8524622 12.4392235,30.8529678 C12.5732367,30.8529678 12.7074108,30.8511139 12.8411022,30.8612259 C13.5470445,30.9138082 13.8448337,31.2456497 13.8454772,31.9903971 C13.8474078,34.1530127 13.8462816,36.3157968 13.8462816,38.478581 L13.8462816,38.9769331 L17.7432823,38.9769331 C17.3774407,38.5727909 17.0635635,38.2261185 16.7424467,37.8713565 C17.1536564,37.460136 17.5462041,37.0681282 17.9154241,36.6992094 C18.8202142,37.6303543 19.7612024,38.5989136 20.7440195,39.6101116 C20.7517417,39.4260736 20.7631642,39.2824835 20.7633251,39.1387248 C20.7644512,36.7512861 20.763486,34.3638475 20.7646121,31.9764088 C20.764773,31.23183 21.0519441,30.900157 21.7717221,30.8647651 C22.3203235,30.8377998 22.8706946,30.8529678 23.4202613,30.8529678 C26.6645711,30.8522936 29.9088808,30.8524622 33.1530297,30.8529678 C33.3005568,30.8529678 33.4484057,30.8504398 33.5951284,30.8613944 C34.3010707,30.9138082 34.5983773,31.2458182 34.5990208,31.9910712 C34.6009513,34.1538554 34.5998252,36.316471 34.5998252,38.4792551 L34.5998252,38.9772702 L38.4974694,38.9772702 C38.1308234,38.5726224 37.8167853,38.2257815 37.4943814,37.8700083 C37.9059129,37.4579451 38.2981388,37.0654317 38.6680024,36.6953332 C39.5777798,37.6271522 40.5213421,38.5938576 41.5035156,39.5996626 C41.5105943,39.4307925 41.5218559,39.2882136 41.5218559,39.1454661 C41.5229821,36.7440392 41.5220168,34.3426123 41.523143,31.9410169 C41.5234647,31.1893597 41.8273674,30.8676302 42.5537414,30.8671246 C46.468278,30.8647651 50.3828146,30.8649336 54.2973512,30.866956 C55.0499487,30.8674616 55.3421071,31.1765512 55.342268,31.9716899 C55.3440377,37.2801427 55.3440377,42.5885956 55.3427506,47.8972169 C55.3425898,48.6744912 55.0391697,48.982401 54.2839982,48.9825695 C50.3828146,48.9832436 46.4817919,48.9832436 42.5806084,48.9825695 C41.8111185,48.982401 41.5239474,48.6778618 41.5234647,47.8579487 C41.5221777,45.3447844 41.5229821,42.8314516 41.5229821,40.2242459 C40.5316384,41.2558365 39.5929025,42.2324853 38.6532014,43.2099768 C38.2746503,42.8117333 37.8907902,42.4075911 37.430512,41.9230587 C37.7886313,41.6254294 38.1457853,41.3286428 38.5029393,41.0316876 C38.4754288,40.9858466 38.44824,40.9398371 38.4207295,40.8938276 L34.5998252,40.8938276 L34.5998252,41.3242609 C34.5998252,43.5010333 34.6004687,45.6778057 34.5995034,47.8545781 C34.5990208,48.6252795 34.2962443,48.9783562 33.5619871,48.9800415 C29.6340975,48.9888052 25.7060469,48.9884682 21.7781573,48.9795359 C21.0657798,48.9778506 20.7650948,48.6278075 20.764773,47.8786783 C20.7633251,45.4912396 20.7641295,43.103801 20.7641295,40.7163623 L20.7641295,40.244807 C19.7824386,41.263589 18.8472421,42.2343392 17.9091498,43.2079544 C17.5359077,42.8086997 17.1551043,42.4015239 16.6624892,41.8746897 C17.0120819,41.6045313 17.3867718,41.314823 17.7616226,41.0249463 C17.7276769,40.9769144 17.6935703,40.929051 17.6594637,40.8810191 L13.8462816,40.8810191 L13.8462816,41.3099356 C13.8462816,43.486708 13.8469251,45.6634804 13.8459599,47.8402527 C13.8456381,48.6342118 13.5428616,48.9797044 12.7818983,48.9810527 C8.86736173,48.9888052 4.95282513,48.9888052 1.03828852,48.9803786 C0.30499665,48.9786932 0.0112294367,48.6333691 0.0110685566,47.8508703 C0.0102641557,42.598539 0.0216866486,37.3460391 -3.21760365e-05,32.0938763 C-0.00373242024,31.178405 0.400881239,30.8495971 1.18742445,30.8516195 C2.83628544,30.8558328 4.48530732,30.8526307 6.13416831,30.8526307 L6.61455653,30.8526307 C5.62723485,29.8067148 4.70860901,28.8337738 3.81878072,27.8913372 C4.18462225,27.4865209 4.56703445,27.063503 4.99626278,26.588914 C5.31721874,26.9684504 5.62803925,27.3360209 5.93869889,27.7034228 C5.97811453,27.6894346 6.01753017,27.6754464 6.05694582,27.6614581 C6.05694582,27.2815847 6.05775022,26.9015428 6.05678494,26.5216694 C6.05404998,25.5736712 6.25000204,24.6817945 6.75999222,23.8868243 C7.58418139,22.6022656 8.73222238,21.902011 10.2142506,21.8226319 C10.4282213,21.8113402 10.6431572,21.815385 10.8576105,21.815385 C22.1322545,21.8150479 33.4065769,21.8131941 44.6810601,21.8177445 C45.8889485,21.8182501 46.8127225,21.3448408 47.3481317,20.1721881 C47.63112,19.5524922 47.5709508,18.8935282 47.5453708,18.1919252 L47.0920105,18.1919252 C45.5905157,18.1919252 44.089021,18.1946218 42.5876871,18.1907455 C41.8207713,18.1887231 41.5186383,17.8668251 41.5183166,17.0614058 C41.5170295,14.6881239 41.5178339,12.3146735 41.5178339,9.94122309 L41.5178339,9.45888161 C40.5317993,10.4518781 39.5818018,11.4088086 38.5674522,12.4304557 C38.2674107,12.0992883 37.9184616,11.7340773 37.6005623,11.3412268 C37.551333,11.2803864 37.6071584,11.0584284 37.6798763,10.9702857 C37.9203921,10.6792291 38.1909926,10.4151379 38.4498488,10.1407662 C38.4358523,10.1013294 38.4218557,10.0620613 38.40802,10.022456 L37.8692323,10.022456 C36.9308181,10.022456 35.9917605,10.0418373 35.0541508,10.0133552 C34.6710951,10.0013894 34.5892071,10.1399235 34.5919421,10.5157521 C34.6077083,12.692356 34.6006296,14.8692969 34.5991817,17.0460693 C34.5985381,17.8541851 34.2780648,18.1914196 33.4937739,18.1919252 C29.6059434,18.1947903 25.7182738,18.1949588 21.8304433,18.1917567 C21.0710889,18.1910826 20.764773,17.8572187 20.7644512,17.0551701 C20.7636468,14.5416687 20.7641295,12.0281674 20.7641295,9.41809662 C19.772464,10.4473277 18.8324411,11.4229653 17.8990143,12.3918616 C17.5458823,12.0131679 17.1586437,11.5980711 16.7345635,11.1433691 C17.0635635,10.8314145 17.418787,10.4946855 17.7740104,10.1581251 C17.7556701,10.1229017 17.7374906,10.0876783 17.719472,10.0524549 L12.1414343,10.0524549 L12.1414343,8.23988233 L17.7670926,8.23988233 C17.3372207,7.84467241 16.9829625,7.51906663 16.6425401,7.20610083 C17.1494735,6.67033438 17.539608,6.25776557 17.9001405,5.8765439 C18.8229492,6.8194861 19.7679594,7.78518026 20.7641295,8.80295112 L20.7641295,8.31032913 C20.7641295,5.93704725 20.7636468,3.56359684 20.7641295,1.19014643 C20.7644512,0.375963444 21.0479221,0.077491479 21.8368785,0.07698588 C25.7380621,0.0751320169 29.6392456,0.0751320169 33.5402683,0.077154413 C34.2795127,0.077660012 34.597412,0.407479117 34.5985381,1.17565259 C34.601434,3.38040145 34.6069039,5.58531885 34.5924247,7.79006772 C34.5900115,8.14449264 34.6939401,8.24898311 35.0251924,8.24274739 C36.0303718,8.22387169 37.0360338,8.23684873 38.041374,8.23482634 C38.1573687,8.23448927 38.2733633,8.2178045 38.5272322,8.19808614 C38.1975887,7.84517801 37.9546596,7.56288522 37.688242,7.30705211 C37.4947032,7.12116019 37.4921291,6.98549112 37.6814851,6.79134109 C37.9961667,6.4682633 38.287199,6.1200741 38.5536165,5.820928 C39.5478561,6.85066471 40.485144,7.82124633 41.4951498,8.86699367 C41.505607,8.61318295 41.5170295,8.46891869 41.5170295,8.32431737 C41.5181557,5.93704725 41.5170295,3.5496086 41.5183166,1.16216995 C41.5186383,0.396355938 41.8132099,0.0763117479 42.5352402,0.0758061489 C46.4632907,0.0729410877 50.3911804,0.0732781537 54.31907,0.0754690829 C55.040135,0.0759746819 55.3524035,0.401580462 55.3525643,1.1507097 C55.3541731,6.47331929 55.3541731,11.7959289 55.3525643,17.1183699 C55.3522426,17.8519941 55.0256558,18.188049 54.3063605,18.1902399 C52.8048658,18.1954644 51.303371,18.1919252 49.8018763,18.1919252 L49.3399893,18.1919252 C49.3102264,18.70376 49.3062044,19.1916631 49.2500572,19.6728248 C48.9881443,21.9240888 47.1533058,23.6119469 44.9753099,23.6121154 C33.5399465,23.6136322 22.1045832,23.612621 10.6690589,23.6132952 C9.18606537,23.6134637 8.12168208,24.378098 7.87183516,25.7398447 C7.75921903,26.3543161 7.8528513,27.0102466 7.8528513,27.6978613 Z" id="Fill-1" fill="#FFFFFF" mask="url(#mask-2)"></path>
                    </g>
                    <mask id="mask-4" fill="white">
                        <use xlink:href="#path-3"></use>
                    </mask>
                    <g id="Clip-5"></g>
                    <path d="M1.70242756,13.5101248 L8.37520258,13.5101248 L8.37520258,11.8828422 L1.70242756,11.8828422 L1.70242756,13.5101248 Z M5.04530594,10.1589207 C6.38711821,10.1589207 7.72908689,10.1573467 9.07089916,10.1595502 C9.787085,10.1608094 10.0875421,10.4663085 10.089419,11.194092 C10.0917651,12.216672 10.0930163,13.239252 10.0887933,14.261832 C10.0861344,14.8964391 9.7894311,15.2274358 9.16552515,15.2296393 C6.41667906,15.2389255 3.66767656,15.2390829 0.918830467,15.2291672 C0.291796385,15.2268063 0.00510307742,14.9017905 0.00275697833,14.2580546 C-0.000840373594,13.20919 -0.0009967802,12.1603255 0.00275697833,11.1116183 C0.00510307742,10.4885008 0.322608487,10.1631703 0.941353018,10.1608094 C2.30928519,10.1551432 3.67721736,10.159078 5.04530594,10.1589207 Z" id="Fill-4" fill="#FFFFFF" mask="url(#mask-4)"></path>
                    <path d="M1.71566323,5.89998515 L8.39196285,5.89998515 L8.39196285,4.27146013 L1.71566323,4.27146013 L1.71566323,5.89998515 Z M5.04700959,2.54063094 C6.3887758,2.54063094 7.73069842,2.53905703 9.07246463,2.5412605 C9.77282937,2.54236224 10.0859446,2.84817302 10.0886035,3.53849009 C10.0925135,4.57412308 10.0926699,5.60991347 10.0884471,6.64554647 C10.0857882,7.27810103 9.78706188,7.60925177 9.16333375,7.61129785 C6.4144256,7.62058392 3.66551746,7.6208987 0.916765714,7.61066829 C0.29053516,7.60846481 0.00494650103,7.28282276 0.00275688371,6.63767692 C-0.00084034475,5.58882307 -0.000996745987,4.53996923 0.00275688371,3.49111539 C0.0052593035,2.86973559 0.323848624,2.5447231 0.943353924,2.54236224 C2.31123915,2.53701094 3.67912437,2.54063094 5.04700959,2.54063094 Z" id="Fill-6" fill="#FFFFFF" mask="url(#mask-4)"></path>
                    <path d="M1.71655423,19.8768436 L8.38153243,19.8768436 L8.38153243,18.2250779 L1.71655423,18.2250779 L1.71655423,19.8768436 Z M5.04161329,16.50721 C6.38355626,16.50721 7.72565565,16.5057935 9.06759862,16.5078396 C9.78526202,16.5089413 10.0879383,16.8141127 10.0898153,17.538875 C10.0921617,18.5483487 10.0921617,19.5576649 10.0898153,20.5671385 C10.0879383,21.2583777 9.80137347,21.577399 9.1304802,21.5792877 C6.40733238,21.587157 3.68402814,21.587157 0.960880318,21.5792877 C0.286076499,21.5775564 0.00342223313,21.2637288 0.00170159289,20.5702862 C-0.000644734718,19.5477496 -0.000488312877,18.5252129 0.00170159289,17.5026763 C0.00326581129,16.8233984 0.307193447,16.5102003 0.97636608,16.5084691 C2.33144848,16.5045345 3.68653089,16.50721 5.04161329,16.50721 Z" id="Fill-7" fill="#FFFFFF" mask="url(#mask-4)"></path>
                    <polygon id="Fill-8" fill="#FFFFFF" mask="url(#mask-4)" points="54.2422161 33.012643 56.7651099 33.012643 56.7651099 30.4732089 54.2422161 30.4732089"></polygon>
                    <polygon id="Fill-9" fill="#FFFFFF" mask="url(#mask-4)" points="50.4578755 33.012643 52.9807692 33.012643 52.9807692 30.4732089 50.4578755 30.4732089"></polygon>
                    <polygon id="Fill-10" fill="#FFFFFF" mask="url(#mask-4)" points="46.6735348 33.012643 49.1964286 33.012643 49.1964286 30.4732089 46.6735348 30.4732089"></polygon>
                    <polygon id="Fill-11" fill="#FFFFFF" mask="url(#mask-4)" points="42.8891941 33.012643 45.4120879 33.012643 45.4120879 30.4732089 42.8891941 30.4732089"></polygon>
                    <polygon id="Fill-12" fill="#FFFFFF" mask="url(#mask-4)" points="40.3663004 33.012643 42.8891941 33.012643 42.8891941 30.4732089 40.3663004 30.4732089"></polygon>
                    <polygon id="Fill-13" fill="#FFFFFF" mask="url(#mask-4)" points="36.5819597 33.012643 39.1048535 33.012643 39.1048535 30.4732089 36.5819597 30.4732089"></polygon>
                    <polygon id="Fill-14" fill="#FFFFFF" mask="url(#mask-4)" points="32.797619 33.012643 35.3205128 33.012643 35.3205128 30.4732089 32.797619 30.4732089"></polygon>
                    <polygon id="Fill-15" fill="#FFFFFF" mask="url(#mask-4)" points="29.0132784 33.012643 31.5361722 33.012643 31.5361722 30.4732089 29.0132784 30.4732089"></polygon>
                    <polygon id="Fill-16" fill="#FFFFFF" mask="url(#mask-4)" points="26.4903846 33.012643 29.0132784 33.012643 29.0132784 30.4732089 26.4903846 30.4732089"></polygon>
                    <polygon id="Fill-17" fill="#FFFFFF" mask="url(#mask-4)" points="22.706044 33.012643 25.2289377 33.012643 25.2289377 30.4732089 22.706044 30.4732089"></polygon>
                    <polygon id="Fill-18" fill="#FFFFFF" mask="url(#mask-4)" points="18.9217033 33.012643 21.4445971 33.012643 21.4445971 30.4732089 18.9217033 30.4732089"></polygon>
                    <polygon id="Fill-19" fill="#FFFFFF" mask="url(#mask-4)" points="15.1373626 33.012643 17.6602564 33.012643 17.6602564 30.4732089 15.1373626 30.4732089"></polygon>
                    <polygon id="Fill-20" fill="#FFFFFF" mask="url(#mask-4)" points="12.6144689 33.012643 15.1373626 33.012643 15.1373626 30.4732089 12.6144689 30.4732089"></polygon>
                    <polygon id="Fill-21" fill="#FFFFFF" mask="url(#mask-4)" points="7.56868132 57.1372667 10.0915751 57.1372667 10.0915751 54.5978326 7.56868132 54.5978326"></polygon>
                    <polygon id="Fill-22" fill="#FFFFFF" mask="url(#mask-4)" points="11.353022 57.1372667 13.8759158 57.1372667 13.8759158 54.5978326 11.353022 54.5978326"></polygon>
                    <polygon id="Fill-23" fill="#FFFFFF" mask="url(#mask-4)" points="15.1373626 57.1372667 17.6602564 57.1372667 17.6602564 54.5978326 15.1373626 54.5978326"></polygon>
                    <polygon id="Fill-24" fill="#FFFFFF" mask="url(#mask-4)" points="17.6602564 57.1372667 20.1831502 57.1372667 20.1831502 54.5978326 17.6602564 54.5978326"></polygon>
                    <polygon id="Fill-25" fill="#FFFFFF" mask="url(#mask-4)" points="21.4445971 57.1372667 23.9674908 57.1372667 23.9674908 54.5978326 21.4445971 54.5978326"></polygon>
                    <polygon id="Fill-26" fill="#FFFFFF" mask="url(#mask-4)" points="25.2289377 57.1372667 27.7518315 57.1372667 27.7518315 54.5978326 25.2289377 54.5978326"></polygon>
                    <polygon id="Fill-27" fill="#FFFFFF" mask="url(#mask-4)" points="29.0132784 57.1372667 31.5361722 57.1372667 31.5361722 54.5978326 29.0132784 54.5978326"></polygon>
                    <polygon id="Fill-28" fill="#FFFFFF" mask="url(#mask-4)" points="31.5361722 57.1372667 34.0590659 57.1372667 34.0590659 54.5978326 31.5361722 54.5978326"></polygon>
                    <polygon id="Fill-29" fill="#FFFFFF" mask="url(#mask-4)" points="35.3205128 57.1372667 37.8434066 57.1372667 37.8434066 54.5978326 35.3205128 54.5978326"></polygon>
                    <polygon id="Fill-30" fill="#FFFFFF" mask="url(#mask-4)" points="39.1048535 57.1372667 41.6277473 57.1372667 41.6277473 54.5978326 39.1048535 54.5978326"></polygon>
                    <polygon id="Fill-31" fill="#FFFFFF" mask="url(#mask-4)" points="42.8891941 57.1372667 45.4120879 57.1372667 45.4120879 54.5978326 42.8891941 54.5978326"></polygon>
                    <polygon id="Fill-32" fill="#FFFFFF" mask="url(#mask-4)" points="45.4120879 57.1372667 47.9349817 57.1372667 47.9349817 54.5978326 45.4120879 54.5978326"></polygon>
                    <polygon id="Fill-33" fill="#FFFFFF" mask="url(#mask-4)" points="49.1964286 57.1372667 51.7193223 57.1372667 51.7193223 54.5978326 49.1964286 54.5978326"></polygon>
                    <polygon id="Fill-34" fill="#FFFFFF" mask="url(#mask-4)" points="52.9807692 57.1372667 55.503663 57.1372667 55.503663 54.5978326 52.9807692 54.5978326"></polygon>
                    <polygon id="Fill-35" fill="#FFFFFF" mask="url(#mask-4)" points="3.78434066 57.1372667 6.30723443 57.1372667 6.30723443 54.5978326 3.78434066 54.5978326"></polygon>
                    <polygon id="Fill-36" fill="#FFFFFF" mask="url(#mask-4)" points="1.26144689 57.1372667 3.78434066 57.1372667 3.78434066 54.5978326 1.26144689 54.5978326"></polygon>
                    <polygon id="Fill-37" fill="#FFFFFF" mask="url(#mask-4)" points="11.353022 2.53943408 13.8759158 2.53943408 13.8759158 0 11.353022 0"></polygon>
                    <polygon id="Fill-38" fill="#FFFFFF" mask="url(#mask-4)" points="15.1373626 2.53943408 17.6602564 2.53943408 17.6602564 0 15.1373626 0"></polygon>
                    <polygon id="Fill-39" fill="#FFFFFF" mask="url(#mask-4)" points="17.6602564 2.53943408 20.1831502 2.53943408 20.1831502 0 17.6602564 0"></polygon>
                    <polygon id="Fill-40" fill="#FFFFFF" mask="url(#mask-4)" points="21.4445971 2.53943408 23.9674908 2.53943408 23.9674908 0 21.4445971 0"></polygon>
                    <polygon id="Fill-41" fill="#FFFFFF" mask="url(#mask-4)" points="25.2289377 2.53943408 27.7518315 2.53943408 27.7518315 0 25.2289377 0"></polygon>
                    <polygon id="Fill-42" fill="#FFFFFF" mask="url(#mask-4)" points="29.0132784 2.53943408 31.5361722 2.53943408 31.5361722 0 29.0132784 0"></polygon>
                    <polygon id="Fill-43" fill="#FFFFFF" mask="url(#mask-4)" points="31.5361722 2.53943408 34.0590659 2.53943408 34.0590659 0 31.5361722 0"></polygon>
                    <polygon id="Fill-44" fill="#FFFFFF" mask="url(#mask-4)" points="35.3205128 2.53943408 37.8434066 2.53943408 37.8434066 0 35.3205128 0"></polygon>
                    <polygon id="Fill-45" fill="#FFFFFF" mask="url(#mask-4)" points="39.1048535 2.53943408 41.6277473 2.53943408 41.6277473 0 39.1048535 0"></polygon>
                    <polygon id="Fill-46" fill="#FFFFFF" mask="url(#mask-4)" points="42.8891941 2.53943408 45.4120879 2.53943408 45.4120879 0 42.8891941 0"></polygon>
                    <polygon id="Fill-47" fill="#FFFFFF" mask="url(#mask-4)" points="45.4120879 2.53943408 47.9349817 2.53943408 47.9349817 0 45.4120879 0"></polygon>
                    <polygon id="Fill-48" fill="#FFFFFF" mask="url(#mask-4)" points="49.1964286 2.53943408 51.7193223 2.53943408 51.7193223 0 49.1964286 0"></polygon>
                    <polygon id="Fill-49" fill="#FFFFFF" mask="url(#mask-4)" points="52.9807692 2.53943408 55.503663 2.53943408 55.503663 0 52.9807692 0"></polygon>
                    <polygon id="Fill-50" fill="#FFFFFF" mask="url(#mask-4)" points="23.9674908 49.5189645 30.2747253 49.5189645 30.2747253 46.9795304 23.9674908 46.9795304"></polygon>
                    <polygon id="Fill-51" fill="#FFFFFF" mask="url(#mask-4)" points="23.9674908 13.9668874 30.2747253 13.9668874 30.2747253 11.4274533 23.9674908 11.4274533"></polygon>
                    <polygon id="Fill-52" fill="#FFFFFF" mask="url(#mask-4)" points="23.9674908 10.1577363 30.2747253 10.1577363 30.2747253 7.61830223 23.9674908 7.61830223"></polygon>
                    <polygon id="Fill-53" fill="#FFFFFF" mask="url(#mask-4)" points="23.9674908 16.5063215 30.2747253 16.5063215 30.2747253 13.9668874 23.9674908 13.9668874"></polygon>
                    <path d="M28.2057611,43.7838226 C27.8360211,42.8842286 27.4943608,42.0526531 27.1200635,41.1418119 C26.7376803,42.0765756 26.3988133,42.9049376 26.0393643,43.7838226 L28.2057611,43.7838226 Z M27.0841921,45.707265 C26.3373615,45.707265 25.5905309,45.7136919 24.8438474,45.7054797 C24.098781,45.6972675 23.7630012,45.0406478 24.0964287,44.2204979 C24.8485518,42.3706084 25.6153763,40.5294667 26.3714687,38.6820766 C26.5284796,38.298245 26.7604675,38.0918686 27.1212396,38.0915116 C27.4828938,38.0911545 27.7151757,38.301637 27.8715985,38.6829692 C28.628573,40.5296452 29.3946624,42.3709655 30.1463444,44.2206765 C30.4790369,45.0392195 30.1425221,45.697089 29.3978967,45.7054797 C28.6266618,45.714049 27.855427,45.707265 27.0841921,45.707265 Z" id="Fill-54" fill="#FFFFFF" mask="url(#mask-4)"></path>
                    <polygon id="Fill-55" fill="#FFFFFF" mask="url(#mask-4)" points="23.9674908 49.5189645 30.2747253 49.5189645 30.2747253 46.9795304 23.9674908 46.9795304"></polygon>
                    <polygon id="Fill-56" fill="#FFFFFF" mask="url(#mask-4)" points="45.4120879 49.5189645 51.7193223 49.5189645 51.7193223 46.9795304 45.4120879 46.9795304"></polygon>
                    <path d="M6.9214316,40.0096107 C6.05899202,40.0179441 5.35560051,40.8679472 5.36425718,41.8915325 C5.37335403,42.9667137 6.06588802,43.8206176 6.92891449,43.8207949 C7.77741535,43.8207949 8.50472276,42.9596215 8.50853756,41.9496887 C8.51293926,40.8571315 7.81248222,40.0009227 6.9214316,40.0096107 M6.92818087,45.7098089 C5.16984881,45.7067947 3.78434066,44.0124622 3.78434066,41.8658232 C3.78448738,39.8000355 5.23880876,38.0709511 6.95855259,38.0916959 C8.69604995,38.1126179 10.100192,39.8516314 10.0915353,41.9714973 C10.0833188,44.0113984 8.64337628,45.7130004 6.92818087,45.7098089" id="Fill-57" fill="#FFFFFF" mask="url(#mask-4)"></path>
                    <polygon id="Fill-58" fill="#FFFFFF" mask="url(#mask-4)" points="3.78434066 49.5189645 10.0915751 49.5189645 10.0915751 46.9795304 3.78434066 46.9795304"></polygon>
                    <polygon id="Fill-59" fill="#FFFFFF" mask="url(#mask-4)" points="45.4120879 17.7760385 47.9349817 17.7760385 47.9349817 15.2366045 45.4120879 15.2366045"></polygon>
                    <polygon id="Fill-60" fill="#FFFFFF" mask="url(#mask-4)" points="49.1964286 17.7760385 51.7193223 17.7760385 51.7193223 15.2366045 49.1964286 15.2366045"></polygon>
                    <path d="M47.3990679,39.877581 C47.1235995,39.877581 46.8907156,40.1587084 46.8907156,40.4916318 L46.8907156,43.3100499 C46.8907156,43.6426162 47.1235995,43.9237435 47.3990679,43.9237435 L49.7323424,43.9237435 C50.0079586,43.9237435 50.2406946,43.6426162 50.2406946,43.3100499 L50.2406946,40.4916318 C50.2406946,40.1587084 50.0079586,39.877581 49.7323424,39.877581 L47.3990679,39.877581 Z M49.7323424,45.7098134 L47.3990679,45.7098134 C46.3035526,45.7098134 45.4120879,44.6333491 45.4120879,43.3100499 L45.4120879,40.4916318 C45.4120879,39.168154 46.3035526,38.0915111 47.3990679,38.0915111 L49.7323424,38.0915111 C50.8278577,38.0915111 51.7193223,39.168154 51.7193223,40.4916318 L51.7193223,43.3100499 C51.7193223,44.6333491 50.8278577,45.7098134 49.7323424,45.7098134 Z" id="Fill-61" fill="#FFFFFF" mask="url(#mask-4)"></path>
                </g>
                <g id="Page-1" transform="translate(1.460623, 192.596026)">
                    <g id="Group-3" fill="#FFFFFF">
                        <path d="M1.73610295,28.0787435 C1.72335647,42.6904763 13.5619328,54.6244442 28.1345486,54.3920067 C42.2883054,54.1660983 53.7367426,42.4666899 53.7630423,28.1317928 C53.7898261,13.5073282 42.0115938,1.72859066 27.7277907,1.76156283 C13.149205,1.79518792 1.71803199,13.7546195 1.73610295,28.0787435 M-2.71050543e-20,28.0309175 C-0.0206525258,12.6125091 12.4118453,0.0393380877 27.7166577,0.000489685739 C43.0001721,-0.0383587162 55.5049538,12.5793737 55.4954343,28.1017587 C55.4860761,43.5186981 43.1889491,55.9203159 28.145843,56.1473668 C12.5572197,56.3827424 -0.0325922672,43.6202263 -2.71050543e-20,28.0309175" id="Fill-1"></path>
                    </g>
                    <path d="M15.2090373,42.7542609 L16.8468437,42.7542609 C16.8468437,43.0234588 16.8424924,43.2888996 16.8477762,43.5540138 C16.8591207,44.1244258 17.1427336,44.4583096 17.6244871,44.4764412 C18.1318823,44.495553 18.4795219,44.1794742 18.5056298,43.6116757 C18.5323594,43.0281959 18.5325148,42.4407957 18.5025217,41.8576425 C18.4743935,41.3058522 18.177882,41.0296304 17.655568,40.9889567 C16.1114703,40.8684057 15.1675443,39.8206902 15.1593079,38.1925984 C15.1555782,37.5133965 15.1521593,36.8301109 15.2163413,36.1558094 C15.2917124,35.361447 15.7178311,34.7470944 16.3680429,34.3671464 C16.7226757,34.1600209 16.9013907,33.9497917 16.8295939,33.5263931 C16.8095467,33.4089457 16.8264858,33.2844744 16.8264858,33.1289669 C17.3876509,33.1289669 17.9227081,33.1289669 18.4579207,33.1284768 C18.5685686,33.5889555 18.9539714,34.2710976 19.3224351,34.6162524 C20.1328688,35.3750049 20.2550166,36.3519907 20.1519835,37.4307423 L18.5149541,37.4307423 C18.5149541,37.1822897 18.5259878,36.9281198 18.5129338,36.6752568 C18.4818529,36.0715218 18.1154095,35.6822629 17.6212236,35.7132991 C17.1404026,35.7435185 16.8372087,36.143395 16.8412492,36.7368391 C16.8446681,37.2538362 16.840783,37.7708333 16.8476208,38.2876671 C16.8552356,38.86788 17.1188014,39.1666439 17.661318,39.2238158 C19.3168405,39.397945 20.1825982,40.4022098 20.1742063,42.1644105 C20.1709429,42.8423056 20.1811995,43.5275514 20.0926191,44.1959723 C19.9925387,44.9509678 19.5524335,45.5215432 18.9084379,45.8640844 C18.591413,46.0326598 18.469576,46.2317812 18.5123122,46.5885338 C18.5325148,46.7574358 18.5025217,46.9328718 18.4939745,47.1413041 C17.9927954,47.1413041 17.5284472,47.1530652 17.0654977,47.1305232 C16.9832888,47.1266028 16.8598977,46.9921672 16.8384519,46.8975886 C16.8008441,46.7299933 16.857722,46.5380592 16.8171615,46.371934 C16.7814185,46.2265541 16.6965677,46.0445842 16.5814131,45.9777748 C15.4492924,45.3216049 14.9369242,44.1503982 15.2090373,42.7542609" id="Fill-4" fill="#FFFFFF"></path>
                    <path d="M39.1001938,14.5588194 L37.4054688,14.5588194 C37.4054688,14.276655 37.4123282,14.0104377 37.4040658,13.7447085 C37.387541,13.2070665 37.063593,12.8526524 36.5938841,12.8466316 C36.1134184,12.8404481 35.7601623,13.1725689 35.7398961,13.7024001 C35.717915,14.2841404 35.7157325,14.8683215 35.7412991,15.4498991 C35.7656186,16.0046271 36.0364067,16.2905341 36.5806331,16.3139665 C38.064901,16.3780799 39.1538214,17.5880997 39.1031558,19.2290142 C39.0838249,19.8512729 39.1067413,20.4777624 39.0448514,21.0951394 C38.9606686,21.9320318 38.5230738,22.5731665 37.8121966,22.9515011 C37.4852866,23.1254537 37.4057806,23.3265812 37.4204347,23.6715573 C37.4430393,24.2072465 37.425891,24.2080601 36.9276534,24.2091992 C36.8238279,24.2093619 36.7200024,24.2091992 36.6161769,24.2091992 C35.796018,24.2091992 35.801942,24.2085483 35.722436,23.3827212 C35.7121469,23.2743466 35.6259375,23.12643 35.5358307,23.0805417 C34.1561678,22.3791988 33.9485168,21.1114118 34.1022284,19.8608736 L35.7358429,19.8608736 C35.7358429,20.1313218 35.7200975,20.4116962 35.7391166,20.6893043 C35.7782461,21.2603048 36.1099887,21.5893338 36.6054202,21.5742005 C37.0922776,21.5593925 37.3981418,21.2023749 37.4048453,20.6243772 C37.411081,20.0825045 37.4135753,19.5403062 37.4034422,18.9984335 C37.3931532,18.4389864 37.0941483,18.1241144 36.5627053,18.0878269 C35.0196653,17.9820559 34.0621636,16.922719 34.0683994,15.3031215 C34.0710496,14.5736273 34.057175,13.8368106 34.148529,13.1169171 C34.2417536,12.3823785 34.6751393,11.8152834 35.3046397,11.4771418 C35.6458919,11.2937512 35.7966416,11.0830229 35.7316337,10.6950875 C35.6660023,10.3042232 35.826885,10.161351 36.2019663,10.1992658 C36.4978533,10.2292071 36.7991966,10.2176537 37.0969544,10.2020321 C37.3535561,10.1883633 37.4657999,10.2964124 37.4247997,10.5574226 C37.3510618,11.0275338 37.5250396,11.2848013 37.9383149,11.5319799 C38.7277627,12.0045321 39.0648058,12.8082286 39.0986349,13.7476375 C39.1083003,14.0138549 39.1001938,14.2808859 39.1001938,14.5588194" id="Fill-6" fill="#FFFFFF"></path>
                    <path d="M34.0878009,42.7414911 L35.7326876,42.7414911 C35.7326876,43.0207628 35.7208416,43.2878 35.7348698,43.5530428 C35.7671347,44.1528571 36.0924335,44.4849816 36.6136598,44.4678534 C37.1107264,44.4513776 37.3984608,44.1093025 37.4043838,43.5138926 C37.4096834,42.9838963 37.4118655,42.4537368 37.4036045,41.9237405 C37.3945641,41.3356713 37.1054269,41.0262214 36.5460126,40.9847874 C35.0228597,40.8722304 34.0622384,39.8094646 34.0684731,38.2155606 C34.0714347,37.4704011 34.0586534,36.7177379 34.1532659,35.982529 C34.2502165,35.2283976 34.7103421,34.6675705 35.3515877,34.3220696 C35.6521033,34.1600855 35.7827216,33.9798313 35.7339346,33.6353093 C35.7114894,33.4787083 35.7300378,33.3157455 35.7300378,33.1284768 L37.3560644,33.1284768 C37.3693133,33.1439738 37.402981,33.1656695 37.4011106,33.183124 C37.3320606,33.8171947 37.5749046,34.1850438 38.1140559,34.5507723 C39.0037567,35.1543384 39.1591582,36.1820321 39.0905758,37.2325635 C39.0854322,37.3105377 38.959334,37.4400597 38.885608,37.4431591 C38.4097396,37.4622448 37.9324684,37.4529467 37.4051632,37.4529467 C37.4051632,37.1527949 37.4110862,36.8986446 37.4037603,36.6446574 C37.388641,36.1069942 37.0658361,35.7329463 36.6105424,35.7153287 C36.1384149,35.6968954 35.7570032,36.0675177 35.7376754,36.6081172 C35.7172566,37.1782425 35.716789,37.7501622 35.7373637,38.3201244 C35.7576267,38.8842141 36.0480108,39.1696845 36.5993199,39.2240055 C38.1756242,39.3796277 39.0905758,40.4136833 39.0980576,42.0726745 C39.1008632,42.7240366 39.1061627,43.3799662 39.0392949,44.0256188 C38.9557491,44.8312981 38.5333438,45.4549287 37.853131,45.833381 C37.5192594,46.0193446 37.3546616,46.2224365 37.4243351,46.6163857 C37.4961907,47.0224063 37.3448418,47.1790072 36.9389587,47.1380626 C36.5567676,47.0995649 36.1681859,47.1297432 35.7944118,47.1297432 C35.6718987,46.5605966 35.3322599,45.9501792 34.9051785,45.5591662 C34.0782929,44.8022616 33.998332,43.8163282 34.0878009,42.7414911" id="Fill-8" fill="#FFFFFF"></path>
                    <path d="M15.2412089,19.8358697 C15.7238648,19.8358697 16.1858311,19.8246475 16.6464077,19.8470918 C16.722836,19.8508326 16.8428052,19.993956 16.8560836,20.0864983 C16.8883533,20.3120802 16.857782,20.5464448 16.8738397,20.7756049 C16.9054918,21.2270942 17.2002423,21.537737 17.6097124,21.5714035 C18.0477466,21.607347 18.4417766,21.3515139 18.4749727,20.8954707 C18.5259249,20.196931 18.5260793,19.4886328 18.4803768,18.7896051 C18.4505775,18.3387664 18.1220132,18.1195274 17.6266964,18.0845597 C16.4893824,18.0042154 15.5941684,17.3518655 15.3298348,16.2516043 C15.0630307,15.1399584 15.0817132,13.9883029 15.335702,12.8717778 C15.4772872,12.2500042 15.8796549,11.7523251 16.4339527,11.469819 C16.7645241,11.3009985 16.9068814,11.0965597 16.846974,10.7259026 C16.7821258,10.3235307 16.9204686,10.1521079 17.3262331,10.2017132 C17.6182044,10.2373314 17.9174326,10.2183025 18.2128007,10.2061045 C18.4420854,10.1966713 18.5484674,10.2828707 18.5288585,10.5344751 C18.5163521,10.6959768 18.5038456,10.8646348 18.5350345,11.0202815 C18.5577314,11.133479 18.6282924,11.2803432 18.7179991,11.3276715 C19.7697753,11.884389 20.2121327,12.7992403 20.1772381,14.0081451 C20.1722973,14.1816822 20.1766205,14.3555446 20.1766205,14.5536404 L18.5254617,14.5536404 C18.5254617,14.305614 18.5351889,14.0544975 18.5234545,13.8046821 C18.4941184,13.1851855 18.1640102,12.831443 17.6463053,12.8503093 C17.1526869,12.868525 16.8702884,13.2284478 16.8675092,13.8494082 C16.8653476,14.3641645 16.861642,14.8792461 16.8688988,15.3940024 C16.8773909,15.9868261 17.1228877,16.2919391 17.676259,16.3134076 C19.2415712,16.3740724 20.2584528,17.711463 20.1787822,19.2134455 C20.1420348,19.901251 20.1763117,20.5971886 20.0913915,21.2771874 C19.9968984,22.0329765 19.5548498,22.5997777 18.919183,22.9426233 C18.6037428,23.1125823 18.5019928,23.3028714 18.5194401,23.6582403 C18.5461514,24.2034103 18.5256161,24.2047114 18.0006544,24.2051994 C17.7176383,24.205362 17.434159,24.1936519 17.1517605,24.2082895 C16.912903,24.2206502 16.8255123,24.1167231 16.8451212,23.8737386 C16.8571644,23.725736 16.8753837,23.567487 16.8389451,23.4292428 C16.8035874,23.294902 16.7299384,23.1182747 16.6252549,23.0660672 C15.4272615,22.4672259 15.0394074,21.1999332 15.2412089,19.8358697" id="Fill-10" fill="#FFFFFF"></path>
                    <mask id="mask-6" fill="white">
                        <use xlink:href="#path-5"></use>
                    </mask>
                    <g id="Clip-13"></g>
                    <polygon id="Fill-12" fill="#FFFFFF" mask="url(#mask-6)" points="34.0590659 29.9581138 36.0233038 29.9581138 36.0233038 28.0317881 34.0590659 28.0317881"></polygon>
                    <polygon id="Fill-14" fill="#FFFFFF" mask="url(#mask-6)" points="37.8434066 29.9575589 39.8068963 29.9575589 39.8068963 28.0317881 37.8434066 28.0317881"></polygon>
                    <polygon id="Fill-15" fill="#FFFFFF" mask="url(#mask-6)" points="40.3663004 29.9880826 42.340076 29.9880826 42.340076 28.0317881 40.3663004 28.0317881"></polygon>
                    <polygon id="Fill-16" fill="#FFFFFF" mask="url(#mask-6)" points="44.150641 29.9880826 46.1139438 29.9880826 46.1139438 28.0317881 44.150641 28.0317881"></polygon>
                    <polygon id="Fill-17" fill="#FFFFFF" mask="url(#mask-6)" points="47.9349817 29.9616287 49.9025858 29.9616287 49.9025858 28.0317881 47.9349817 28.0317881"></polygon>
                    <polygon id="Fill-18" fill="#FFFFFF" mask="url(#mask-6)" points="51.7193223 29.9760581 53.6685988 29.9760581 53.6685988 28.0317881 51.7193223 28.0317881"></polygon>
                    <polygon id="Fill-19" fill="#FFFFFF" mask="url(#mask-6)" points="26.4903846 32.5134879 28.4617291 32.5134879 28.4617291 30.5801325 26.4903846 30.5801325"></polygon>
                    <polygon id="Fill-20" fill="#FFFFFF" mask="url(#mask-6)" points="26.4903846 36.3552437 28.4682747 36.3552437 28.4682747 34.402649 26.4903846 34.402649"></polygon>
                    <polygon id="Fill-21" fill="#FFFFFF" mask="url(#mask-6)" points="26.4903846 40.1768353 28.4471418 40.1768353 28.4471418 38.2251656 26.4903846 38.2251656"></polygon>
                    <polygon id="Fill-22" fill="#FFFFFF" mask="url(#mask-6)" points="26.4903846 43.9821475 28.4622901 43.9821475 28.4622901 42.0476821 26.4903846 42.0476821"></polygon>
                    <polygon id="Fill-23" fill="#FFFFFF" mask="url(#mask-6)" points="26.4903846 47.8255682 28.4671526 47.8255682 28.4671526 45.8701987 26.4903846 45.8701987"></polygon>
                    <polygon id="Fill-24" fill="#FFFFFF" mask="url(#mask-6)" points="26.4903846 50.3448688 28.4544354 50.3448688 28.4544354 48.418543 26.4903846 48.418543"></polygon>
                    <polygon id="Fill-25" fill="#FFFFFF" mask="url(#mask-6)" points="26.4903846 54.1973541 28.4619161 54.1973541 28.4619161 52.2410596 26.4903846 52.2410596"></polygon>
                    <polygon id="Fill-26" fill="#FFFFFF" mask="url(#mask-6)" points="30.2747253 29.9880826 32.2501841 29.9880826 32.2501841 28.0317881 30.2747253 28.0317881"></polygon>
                    <polygon id="Fill-27" fill="#FFFFFF" mask="url(#mask-6)" points="26.4903846 29.9880826 28.4514431 29.9880826 28.4514431 28.0317881 26.4903846 28.0317881"></polygon>
                    <polygon id="Fill-28" fill="#FFFFFF" mask="url(#mask-6)" points="23.9674908 29.9597788 25.9332248 29.9597788 25.9332248 28.0317881 23.9674908 28.0317881"></polygon>
                    <polygon id="Fill-29" fill="#FFFFFF" mask="url(#mask-6)" points="20.1831502 29.9841978 22.1610402 29.9841978 22.1610402 28.0317881 20.1831502 28.0317881"></polygon>
                    <polygon id="Fill-30" fill="#FFFFFF" mask="url(#mask-6)" points="16.3988095 29.9610737 18.3658526 29.9610737 18.3658526 28.0317881 16.3988095 28.0317881"></polygon>
                    <polygon id="Fill-31" fill="#FFFFFF" mask="url(#mask-6)" points="12.6144689 29.9616287 14.582073 29.9616287 14.582073 28.0317881 12.6144689 28.0317881"></polygon>
                    <polygon id="Fill-32" fill="#FFFFFF" mask="url(#mask-6)" points="10.0915751 29.9594088 12.056935 29.9594088 12.056935 28.0317881 10.0915751 28.0317881"></polygon>
                    <polygon id="Fill-33" fill="#FFFFFF" mask="url(#mask-6)" points="6.30723443 29.9610737 8.2742775 29.9610737 8.2742775 28.0317881 6.30723443 28.0317881"></polygon>
                    <polygon id="Fill-34" fill="#FFFFFF" mask="url(#mask-6)" points="2.52289377 29.9880826 4.48582247 29.9880826 4.48582247 28.0317881 2.52289377 28.0317881"></polygon>
                    <polygon id="Fill-35" fill="#FFFFFF" mask="url(#mask-6)" points="26.4903846 26.1476218 28.4662175 26.1476218 28.4662175 24.2092715 26.4903846 24.2092715"></polygon>
                    <polygon id="Fill-36" fill="#FFFFFF" mask="url(#mask-6)" points="26.4903846 22.3286201 28.4364818 22.3286201 28.4364818 20.386755 26.4903846 20.386755"></polygon>
                    <polygon id="Fill-37" fill="#FFFFFF" mask="url(#mask-6)" points="26.4903846 18.4918591 28.4553705 18.4918591 28.4553705 16.5642384 26.4903846 16.5642384"></polygon>
                    <polygon id="Fill-38" fill="#FFFFFF" mask="url(#mask-6)" points="26.4903846 15.9436997 28.4555575 15.9436997 28.4555575 14.015894 26.4903846 14.015894"></polygon>
                    <polygon id="Fill-39" fill="#FFFFFF" mask="url(#mask-6)" points="26.4903846 12.1398674 28.4413442 12.1398674 28.4413442 10.1933775 26.4903846 10.1933775"></polygon>
                    <polygon id="Fill-40" fill="#FFFFFF" mask="url(#mask-6)" points="26.4903846 8.3260455 28.4667785 8.3260455 28.4667785 6.37086093 26.4903846 6.37086093"></polygon>
                    <polygon id="Fill-41" fill="#FFFFFF" mask="url(#mask-6)" points="26.4903846 4.48817458 28.4679006 4.48817458 28.4679006 2.54834437 26.4903846 2.54834437"></polygon>
                </g>
                <g id="Page-1-Copy" transform="translate(1.460623, 386.662252)">
                    <g id="Group-3" fill="#FFFFFF">
                        <path d="M1.73610295,28.0787435 C1.72335647,42.6904763 13.5619328,54.6244442 28.1345486,54.3920067 C42.2883054,54.1660983 53.7367426,42.4666899 53.7630423,28.1317928 C53.7898261,13.5073282 42.0115938,1.72859066 27.7277907,1.76156283 C13.149205,1.79518792 1.71803199,13.7546195 1.73610295,28.0787435 M-2.71050543e-20,28.0309175 C-0.0206525258,12.6125091 12.4118453,0.0393380877 27.7166577,0.000489685739 C43.0001721,-0.0383587162 55.5049538,12.5793737 55.4954343,28.1017587 C55.4860761,43.5186981 43.1889491,55.9203159 28.145843,56.1473668 C12.5572197,56.3827424 -0.0325922672,43.6202263 -2.71050543e-20,28.0309175" id="Fill-1"></path>
                    </g>
                    <path d="M15.2090373,42.7542609 L16.8468437,42.7542609 C16.8468437,43.0234588 16.8424924,43.2888996 16.8477762,43.5540138 C16.8591207,44.1244258 17.1427336,44.4583096 17.6244871,44.4764412 C18.1318823,44.495553 18.4795219,44.1794742 18.5056298,43.6116757 C18.5323594,43.0281959 18.5325148,42.4407957 18.5025217,41.8576425 C18.4743935,41.3058522 18.177882,41.0296304 17.655568,40.9889567 C16.1114703,40.8684057 15.1675443,39.8206902 15.1593079,38.1925984 C15.1555782,37.5133965 15.1521593,36.8301109 15.2163413,36.1558094 C15.2917124,35.361447 15.7178311,34.7470944 16.3680429,34.3671464 C16.7226757,34.1600209 16.9013907,33.9497917 16.8295939,33.5263931 C16.8095467,33.4089457 16.8264858,33.2844744 16.8264858,33.1289669 C17.3876509,33.1289669 17.9227081,33.1289669 18.4579207,33.1284768 C18.5685686,33.5889555 18.9539714,34.2710976 19.3224351,34.6162524 C20.1328688,35.3750049 20.2550166,36.3519907 20.1519835,37.4307423 L18.5149541,37.4307423 C18.5149541,37.1822897 18.5259878,36.9281198 18.5129338,36.6752568 C18.4818529,36.0715218 18.1154095,35.6822629 17.6212236,35.7132991 C17.1404026,35.7435185 16.8372087,36.143395 16.8412492,36.7368391 C16.8446681,37.2538362 16.840783,37.7708333 16.8476208,38.2876671 C16.8552356,38.86788 17.1188014,39.1666439 17.661318,39.2238158 C19.3168405,39.397945 20.1825982,40.4022098 20.1742063,42.1644105 C20.1709429,42.8423056 20.1811995,43.5275514 20.0926191,44.1959723 C19.9925387,44.9509678 19.5524335,45.5215432 18.9084379,45.8640844 C18.591413,46.0326598 18.469576,46.2317812 18.5123122,46.5885338 C18.5325148,46.7574358 18.5025217,46.9328718 18.4939745,47.1413041 C17.9927954,47.1413041 17.5284472,47.1530652 17.0654977,47.1305232 C16.9832888,47.1266028 16.8598977,46.9921672 16.8384519,46.8975886 C16.8008441,46.7299933 16.857722,46.5380592 16.8171615,46.371934 C16.7814185,46.2265541 16.6965677,46.0445842 16.5814131,45.9777748 C15.4492924,45.3216049 14.9369242,44.1503982 15.2090373,42.7542609" id="Fill-4" fill="#FFFFFF"></path>
                    <path d="M39.1001938,14.5588194 L37.4054688,14.5588194 C37.4054688,14.276655 37.4123282,14.0104377 37.4040658,13.7447085 C37.387541,13.2070665 37.063593,12.8526524 36.5938841,12.8466316 C36.1134184,12.8404481 35.7601623,13.1725689 35.7398961,13.7024001 C35.717915,14.2841404 35.7157325,14.8683215 35.7412991,15.4498991 C35.7656186,16.0046271 36.0364067,16.2905341 36.5806331,16.3139665 C38.064901,16.3780799 39.1538214,17.5880997 39.1031558,19.2290142 C39.0838249,19.8512729 39.1067413,20.4777624 39.0448514,21.0951394 C38.9606686,21.9320318 38.5230738,22.5731665 37.8121966,22.9515011 C37.4852866,23.1254537 37.4057806,23.3265812 37.4204347,23.6715573 C37.4430393,24.2072465 37.425891,24.2080601 36.9276534,24.2091992 C36.8238279,24.2093619 36.7200024,24.2091992 36.6161769,24.2091992 C35.796018,24.2091992 35.801942,24.2085483 35.722436,23.3827212 C35.7121469,23.2743466 35.6259375,23.12643 35.5358307,23.0805417 C34.1561678,22.3791988 33.9485168,21.1114118 34.1022284,19.8608736 L35.7358429,19.8608736 C35.7358429,20.1313218 35.7200975,20.4116962 35.7391166,20.6893043 C35.7782461,21.2603048 36.1099887,21.5893338 36.6054202,21.5742005 C37.0922776,21.5593925 37.3981418,21.2023749 37.4048453,20.6243772 C37.411081,20.0825045 37.4135753,19.5403062 37.4034422,18.9984335 C37.3931532,18.4389864 37.0941483,18.1241144 36.5627053,18.0878269 C35.0196653,17.9820559 34.0621636,16.922719 34.0683994,15.3031215 C34.0710496,14.5736273 34.057175,13.8368106 34.148529,13.1169171 C34.2417536,12.3823785 34.6751393,11.8152834 35.3046397,11.4771418 C35.6458919,11.2937512 35.7966416,11.0830229 35.7316337,10.6950875 C35.6660023,10.3042232 35.826885,10.161351 36.2019663,10.1992658 C36.4978533,10.2292071 36.7991966,10.2176537 37.0969544,10.2020321 C37.3535561,10.1883633 37.4657999,10.2964124 37.4247997,10.5574226 C37.3510618,11.0275338 37.5250396,11.2848013 37.9383149,11.5319799 C38.7277627,12.0045321 39.0648058,12.8082286 39.0986349,13.7476375 C39.1083003,14.0138549 39.1001938,14.2808859 39.1001938,14.5588194" id="Fill-6" fill="#FFFFFF"></path>
                    <path d="M34.0878009,42.7414911 L35.7326876,42.7414911 C35.7326876,43.0207628 35.7208416,43.2878 35.7348698,43.5530428 C35.7671347,44.1528571 36.0924335,44.4849816 36.6136598,44.4678534 C37.1107264,44.4513776 37.3984608,44.1093025 37.4043838,43.5138926 C37.4096834,42.9838963 37.4118655,42.4537368 37.4036045,41.9237405 C37.3945641,41.3356713 37.1054269,41.0262214 36.5460126,40.9847874 C35.0228597,40.8722304 34.0622384,39.8094646 34.0684731,38.2155606 C34.0714347,37.4704011 34.0586534,36.7177379 34.1532659,35.982529 C34.2502165,35.2283976 34.7103421,34.6675705 35.3515877,34.3220696 C35.6521033,34.1600855 35.7827216,33.9798313 35.7339346,33.6353093 C35.7114894,33.4787083 35.7300378,33.3157455 35.7300378,33.1284768 L37.3560644,33.1284768 C37.3693133,33.1439738 37.402981,33.1656695 37.4011106,33.183124 C37.3320606,33.8171947 37.5749046,34.1850438 38.1140559,34.5507723 C39.0037567,35.1543384 39.1591582,36.1820321 39.0905758,37.2325635 C39.0854322,37.3105377 38.959334,37.4400597 38.885608,37.4431591 C38.4097396,37.4622448 37.9324684,37.4529467 37.4051632,37.4529467 C37.4051632,37.1527949 37.4110862,36.8986446 37.4037603,36.6446574 C37.388641,36.1069942 37.0658361,35.7329463 36.6105424,35.7153287 C36.1384149,35.6968954 35.7570032,36.0675177 35.7376754,36.6081172 C35.7172566,37.1782425 35.716789,37.7501622 35.7373637,38.3201244 C35.7576267,38.8842141 36.0480108,39.1696845 36.5993199,39.2240055 C38.1756242,39.3796277 39.0905758,40.4136833 39.0980576,42.0726745 C39.1008632,42.7240366 39.1061627,43.3799662 39.0392949,44.0256188 C38.9557491,44.8312981 38.5333438,45.4549287 37.853131,45.833381 C37.5192594,46.0193446 37.3546616,46.2224365 37.4243351,46.6163857 C37.4961907,47.0224063 37.3448418,47.1790072 36.9389587,47.1380626 C36.5567676,47.0995649 36.1681859,47.1297432 35.7944118,47.1297432 C35.6718987,46.5605966 35.3322599,45.9501792 34.9051785,45.5591662 C34.0782929,44.8022616 33.998332,43.8163282 34.0878009,42.7414911" id="Fill-8" fill="#FFFFFF"></path>
                    <path d="M15.2412089,19.8358697 C15.7238648,19.8358697 16.1858311,19.8246475 16.6464077,19.8470918 C16.722836,19.8508326 16.8428052,19.993956 16.8560836,20.0864983 C16.8883533,20.3120802 16.857782,20.5464448 16.8738397,20.7756049 C16.9054918,21.2270942 17.2002423,21.537737 17.6097124,21.5714035 C18.0477466,21.607347 18.4417766,21.3515139 18.4749727,20.8954707 C18.5259249,20.196931 18.5260793,19.4886328 18.4803768,18.7896051 C18.4505775,18.3387664 18.1220132,18.1195274 17.6266964,18.0845597 C16.4893824,18.0042154 15.5941684,17.3518655 15.3298348,16.2516043 C15.0630307,15.1399584 15.0817132,13.9883029 15.335702,12.8717778 C15.4772872,12.2500042 15.8796549,11.7523251 16.4339527,11.469819 C16.7645241,11.3009985 16.9068814,11.0965597 16.846974,10.7259026 C16.7821258,10.3235307 16.9204686,10.1521079 17.3262331,10.2017132 C17.6182044,10.2373314 17.9174326,10.2183025 18.2128007,10.2061045 C18.4420854,10.1966713 18.5484674,10.2828707 18.5288585,10.5344751 C18.5163521,10.6959768 18.5038456,10.8646348 18.5350345,11.0202815 C18.5577314,11.133479 18.6282924,11.2803432 18.7179991,11.3276715 C19.7697753,11.884389 20.2121327,12.7992403 20.1772381,14.0081451 C20.1722973,14.1816822 20.1766205,14.3555446 20.1766205,14.5536404 L18.5254617,14.5536404 C18.5254617,14.305614 18.5351889,14.0544975 18.5234545,13.8046821 C18.4941184,13.1851855 18.1640102,12.831443 17.6463053,12.8503093 C17.1526869,12.868525 16.8702884,13.2284478 16.8675092,13.8494082 C16.8653476,14.3641645 16.861642,14.8792461 16.8688988,15.3940024 C16.8773909,15.9868261 17.1228877,16.2919391 17.676259,16.3134076 C19.2415712,16.3740724 20.2584528,17.711463 20.1787822,19.2134455 C20.1420348,19.901251 20.1763117,20.5971886 20.0913915,21.2771874 C19.9968984,22.0329765 19.5548498,22.5997777 18.919183,22.9426233 C18.6037428,23.1125823 18.5019928,23.3028714 18.5194401,23.6582403 C18.5461514,24.2034103 18.5256161,24.2047114 18.0006544,24.2051994 C17.7176383,24.205362 17.434159,24.1936519 17.1517605,24.2082895 C16.912903,24.2206502 16.8255123,24.1167231 16.8451212,23.8737386 C16.8571644,23.725736 16.8753837,23.567487 16.8389451,23.4292428 C16.8035874,23.294902 16.7299384,23.1182747 16.6252549,23.0660672 C15.4272615,22.4672259 15.0394074,21.1999332 15.2412089,19.8358697" id="Fill-10" fill="#FFFFFF"></path>
                    <mask id="mask-8" fill="white">
                        <use xlink:href="#path-7"></use>
                    </mask>
                    <g id="Clip-13"></g>
                    <polygon id="Fill-12" fill="#FFFFFF" mask="url(#mask-8)" points="34.0590659 29.9581138 36.0233038 29.9581138 36.0233038 28.0317881 34.0590659 28.0317881"></polygon>
                    <polygon id="Fill-14" fill="#FFFFFF" mask="url(#mask-8)" points="37.8434066 29.9575589 39.8068963 29.9575589 39.8068963 28.0317881 37.8434066 28.0317881"></polygon>
                    <polygon id="Fill-15" fill="#FFFFFF" mask="url(#mask-8)" points="40.3663004 29.9880826 42.340076 29.9880826 42.340076 28.0317881 40.3663004 28.0317881"></polygon>
                    <polygon id="Fill-16" fill="#FFFFFF" mask="url(#mask-8)" points="44.150641 29.9880826 46.1139438 29.9880826 46.1139438 28.0317881 44.150641 28.0317881"></polygon>
                    <polygon id="Fill-17" fill="#FFFFFF" mask="url(#mask-8)" points="47.9349817 29.9616287 49.9025858 29.9616287 49.9025858 28.0317881 47.9349817 28.0317881"></polygon>
                    <polygon id="Fill-18" fill="#FFFFFF" mask="url(#mask-8)" points="51.7193223 29.9760581 53.6685988 29.9760581 53.6685988 28.0317881 51.7193223 28.0317881"></polygon>
                    <polygon id="Fill-19" fill="#FFFFFF" mask="url(#mask-8)" points="26.4903846 32.5134879 28.4617291 32.5134879 28.4617291 30.5801325 26.4903846 30.5801325"></polygon>
                    <polygon id="Fill-20" fill="#FFFFFF" mask="url(#mask-8)" points="26.4903846 36.3552437 28.4682747 36.3552437 28.4682747 34.402649 26.4903846 34.402649"></polygon>
                    <polygon id="Fill-21" fill="#FFFFFF" mask="url(#mask-8)" points="26.4903846 40.1768353 28.4471418 40.1768353 28.4471418 38.2251656 26.4903846 38.2251656"></polygon>
                    <polygon id="Fill-22" fill="#FFFFFF" mask="url(#mask-8)" points="26.4903846 43.9821475 28.4622901 43.9821475 28.4622901 42.0476821 26.4903846 42.0476821"></polygon>
                    <polygon id="Fill-23" fill="#FFFFFF" mask="url(#mask-8)" points="26.4903846 47.8255682 28.4671526 47.8255682 28.4671526 45.8701987 26.4903846 45.8701987"></polygon>
                    <polygon id="Fill-24" fill="#FFFFFF" mask="url(#mask-8)" points="26.4903846 50.3448688 28.4544354 50.3448688 28.4544354 48.418543 26.4903846 48.418543"></polygon>
                    <polygon id="Fill-25" fill="#FFFFFF" mask="url(#mask-8)" points="26.4903846 54.1973541 28.4619161 54.1973541 28.4619161 52.2410596 26.4903846 52.2410596"></polygon>
                    <polygon id="Fill-26" fill="#FFFFFF" mask="url(#mask-8)" points="30.2747253 29.9880826 32.2501841 29.9880826 32.2501841 28.0317881 30.2747253 28.0317881"></polygon>
                    <polygon id="Fill-27" fill="#FFFFFF" mask="url(#mask-8)" points="26.4903846 29.9880826 28.4514431 29.9880826 28.4514431 28.0317881 26.4903846 28.0317881"></polygon>
                    <polygon id="Fill-28" fill="#FFFFFF" mask="url(#mask-8)" points="23.9674908 29.9597788 25.9332248 29.9597788 25.9332248 28.0317881 23.9674908 28.0317881"></polygon>
                    <polygon id="Fill-29" fill="#FFFFFF" mask="url(#mask-8)" points="20.1831502 29.9841978 22.1610402 29.9841978 22.1610402 28.0317881 20.1831502 28.0317881"></polygon>
                    <polygon id="Fill-30" fill="#FFFFFF" mask="url(#mask-8)" points="16.3988095 29.9610737 18.3658526 29.9610737 18.3658526 28.0317881 16.3988095 28.0317881"></polygon>
                    <polygon id="Fill-31" fill="#FFFFFF" mask="url(#mask-8)" points="12.6144689 29.9616287 14.582073 29.9616287 14.582073 28.0317881 12.6144689 28.0317881"></polygon>
                    <polygon id="Fill-32" fill="#FFFFFF" mask="url(#mask-8)" points="10.0915751 29.9594088 12.056935 29.9594088 12.056935 28.0317881 10.0915751 28.0317881"></polygon>
                    <polygon id="Fill-33" fill="#FFFFFF" mask="url(#mask-8)" points="6.30723443 29.9610737 8.2742775 29.9610737 8.2742775 28.0317881 6.30723443 28.0317881"></polygon>
                    <polygon id="Fill-34" fill="#FFFFFF" mask="url(#mask-8)" points="2.52289377 29.9880826 4.48582247 29.9880826 4.48582247 28.0317881 2.52289377 28.0317881"></polygon>
                    <polygon id="Fill-35" fill="#FFFFFF" mask="url(#mask-8)" points="26.4903846 26.1476218 28.4662175 26.1476218 28.4662175 24.2092715 26.4903846 24.2092715"></polygon>
                    <polygon id="Fill-36" fill="#FFFFFF" mask="url(#mask-8)" points="26.4903846 22.3286201 28.4364818 22.3286201 28.4364818 20.386755 26.4903846 20.386755"></polygon>
                    <polygon id="Fill-37" fill="#FFFFFF" mask="url(#mask-8)" points="26.4903846 18.4918591 28.4553705 18.4918591 28.4553705 16.5642384 26.4903846 16.5642384"></polygon>
                    <polygon id="Fill-38" fill="#FFFFFF" mask="url(#mask-8)" points="26.4903846 15.9436997 28.4555575 15.9436997 28.4555575 14.015894 26.4903846 14.015894"></polygon>
                    <polygon id="Fill-39" fill="#FFFFFF" mask="url(#mask-8)" points="26.4903846 12.1398674 28.4413442 12.1398674 28.4413442 10.1933775 26.4903846 10.1933775"></polygon>
                    <polygon id="Fill-40" fill="#FFFFFF" mask="url(#mask-8)" points="26.4903846 8.3260455 28.4667785 8.3260455 28.4667785 6.37086093 26.4903846 6.37086093"></polygon>
                    <polygon id="Fill-41" fill="#FFFFFF" mask="url(#mask-8)" points="26.4903846 4.48817458 28.4679006 4.48817458 28.4679006 2.54834437 26.4903846 2.54834437"></polygon>
                </g>
                <g id="Page-1" transform="translate(0.000000, 99.973510)">
                    <mask id="mask-10" fill="white">
                        <use xlink:href="#path-9"></use>
                    </mask>
                    <g id="Clip-2"></g>
                    <path d="M40.9691982,44.7896315 L53.6417526,44.7896315 L53.6417526,32.0879527 L40.9691982,32.0879527 L40.9691982,44.7896315 Z M39.1050807,38.3939751 C39.1050807,36.053189 39.104639,33.7124029 39.1055223,31.3716168 C39.1058167,30.5921398 39.4285006,30.2480277 40.1994382,30.2472918 C44.9382684,30.2428763 49.6772458,30.2430235 54.416076,30.2477334 C55.1537443,30.2484693 55.5001289,30.6031784 55.5007177,31.3504226 C55.5045452,36.0743832 55.5046924,40.7983439 55.500865,45.5221574 C55.5002761,46.2817649 55.1425563,46.6249938 54.3758878,46.6252882 C49.6651746,46.6266128 44.9544615,46.6266128 40.2437483,46.6254353 C39.4209929,46.625141 39.1059639,46.3003098 39.1055223,45.4587219 C39.1043446,43.1038063 39.1050807,40.7488907 39.1050807,38.3939751 Z" id="Fill-1" fill="#FFFFFF" mask="url(#mask-10)"></path>
                    <path d="M8.83173144,32.9770027 C6.66802292,36.9527545 4.54836081,40.847667 2.40996467,44.7767183 L15.2552143,44.7767183 C13.1075227,40.8312627 10.9887186,36.9393059 8.83173144,32.9770027 M8.82458105,46.6253793 C6.23399414,46.6255271 3.64340724,46.6267094 1.05267732,46.6247881 C0.122697383,46.6240492 -0.263709784,45.9585667 0.19019708,45.1228342 C2.77077344,40.3720901 5.3569271,35.6247452 7.93750346,30.8741489 C8.13900149,30.5030571 8.39527153,30.2399972 8.8347346,30.2441352 C9.27176654,30.2481254 9.53189779,30.5132543 9.73182275,30.8810949 C12.2873727,35.5818871 14.8450678,40.281497 17.4020479,44.9814025 C17.4490975,45.0678576 17.4988642,45.1528348 17.5404795,45.2418023 C17.8735447,45.9529508 17.4838484,46.6210935 16.7199005,46.6228669 C14.0882704,46.6287784 11.4564972,46.6252315 8.82458105,46.6253793" id="Fill-3" fill="#FFFFFF" mask="url(#mask-10)"></path>
                    <path d="M27.1344019,1.822891 C23.6520203,1.82274376 20.7502566,4.6842159 20.748636,8.12019096 C20.7471627,11.6872033 23.5894061,14.5639877 27.1170173,14.5657545 C30.6067653,14.5675213 33.5070557,11.6922092 33.5116229,8.22590421 C33.5163374,4.71307356 30.6379987,1.82318546 27.1344019,1.822891 M35.3205107,8.33250085 C35.3237519,12.7075276 31.5810425,16.3973322 27.1208478,16.3821672 C22.4290542,16.3665605 18.8600439,12.5701593 18.9225108,7.94881182 C18.9804105,3.64946282 22.6986636,-0.000294465875 27.1382324,0 C31.6974312,0.000441698812 35.3171222,3.68656552 35.3205107,8.33250085" id="Fill-4" fill="#FFFFFF" mask="url(#mask-10)"></path>
                    <path d="M17.6602564,10.3960677 C17.3156565,10.5872158 17.0027407,10.7595672 16.6906968,10.9337983 C11.7523524,13.6919995 8.38076738,17.7311246 6.61169537,23.0936831 C5.78049895,25.6141781 5.50072048,28.1969915 5.62222427,30.8347491 C5.64911208,31.4174473 5.64053705,31.4177365 5.04522658,31.4402925 C4.93389655,31.4444857 4.82242118,31.4466545 4.71138183,31.4547516 C3.7078128,31.5271912 3.85169887,31.6668653 3.80693431,30.620322 C3.62714939,26.4341487 4.52069644,22.4703551 6.4740589,18.7666791 C8.04779466,15.7829173 10.1956213,13.2481078 12.9280033,11.2462576 C14.0327286,10.4371313 15.2404996,9.76724523 16.4046687,9.03952314 C16.5423052,8.95349202 16.7020333,8.90259629 16.8831263,8.82119205 C17.1380517,9.33781256 17.3820767,9.83231078 17.6602564,10.3960677" id="Fill-5" fill="#FFFFFF" mask="url(#mask-10)"></path>
                    <path d="M15.9872417,48.0442017 C16.5915376,48.3615778 17.1553942,48.6803149 17.740044,48.9602646 C19.4108204,49.7606457 21.1365197,50.4306468 22.9809559,50.7759226 C25.117215,51.1760452 27.2620783,51.3405854 29.449532,51.161619 C31.9594967,50.95625 34.3315087,50.3327937 36.5961126,49.3250021 C37.4755969,48.9335897 38.307902,48.4441881 39.1479507,47.9769702 C39.3934549,47.8403297 39.527966,47.8452292 39.6752398,48.0831252 C39.8556395,48.3747791 40.0585532,48.6551371 40.2702146,48.9276015 C40.4332626,49.1374617 40.3833587,49.2589955 40.1618027,49.3944111 C38.1299401,50.6366963 35.9660044,51.5820198 33.6222426,52.177032 C31.1557287,52.8032101 28.661108,53.0404257 26.1191646,52.8771103 C22.2573495,52.6290071 18.6589639,51.5953573 15.3700396,49.6331237 C15.1398795,49.4958027 15.0551289,49.3802571 15.2325172,49.1430416 C15.4929351,48.7949078 15.7258199,48.4279927 15.9872417,48.0442017" id="Fill-6" fill="#FFFFFF" mask="url(#mask-10)"></path>
                    <path d="M30.7138199,37.634183 C30.1926223,38.1766948 29.802549,38.5827376 29.3393101,39.0652791 C28.8227033,38.5142837 28.3052357,37.9561211 27.7807384,37.4049794 C27.4649785,37.073095 27.1302815,36.7599331 26.8193993,36.4239531 C26.5508384,36.1336091 26.3824139,35.7895844 26.5700623,35.3926103 C27.1473535,34.171849 27.7397083,32.9586938 28.3521478,31.6889324 C28.8875481,31.9593838 29.3843572,32.2105277 29.9384076,32.4903404 C29.6146137,33.1666883 29.3012926,33.8213885 28.978503,34.4958349 C30.52445,34.4503452 32.61627,32.4251044 33.2840858,30.4096636 C34.0751355,28.0226994 33.3255464,24.7617779 30.501783,22.9717376 C30.7819644,22.4741304 31.0634369,21.9740367 31.3736018,21.422895 C33.7800341,22.9480421 35.1879706,25.0980504 35.3096264,27.928941 C35.4955532,32.2545547 33.2914024,34.9584838 29.3513609,36.4002575 C29.8114437,36.816978 30.2670791,37.2296029 30.7138199,37.634183" id="Fill-7" fill="#FFFFFF" mask="url(#mask-10)"></path>
                    <path d="M23.7626859,35.065687 C23.4771942,35.5737681 23.2032649,36.0611293 22.9313341,36.5449385 C21.074496,35.7296112 19.1499963,33.0534904 18.9441568,30.1436791 C18.6669444,26.2212575 20.9730037,22.6689817 24.9520444,21.4737406 C24.7062361,21.215778 24.5021095,20.9877113 24.2835656,20.7756285 C24.0550295,20.5536298 23.8127897,20.347171 23.5040305,20.0686366 C23.9475418,19.639439 24.3088316,19.2737331 24.6923897,18.9349631 C24.7540559,18.8803514 24.9591817,18.8982593 25.0222754,18.9624909 C25.8523425,19.8068261 26.6728457,20.6616692 27.4860689,21.5233203 C27.7343039,21.7863148 27.8329413,22.1262688 27.6764918,22.4656309 C27.1063649,23.7034958 26.5148261,24.9304088 25.9025891,26.2219974 C25.3608686,25.9415391 24.8575467,25.6809125 24.3182528,25.4014901 C24.648424,24.7101861 24.9604664,24.0570658 25.2819301,23.3841137 C23.7731064,23.5763646 21.7890817,25.1827474 21.031815,27.3358391 C20.2170216,29.6526179 20.7841509,33.130894 23.7626859,35.065687" id="Fill-8" fill="#FFFFFF" mask="url(#mask-10)"></path>
                    <path d="M36.5819597,10.3824775 C36.8496017,9.83906601 37.1005982,9.32939864 37.3510106,8.82119205 C44.9340543,12.3240049 50.2039587,20.4224426 50.4578755,28.9268321 C49.9481438,28.9506429 49.4356378,28.9916909 48.923862,28.982634 C48.8343559,28.9808811 48.6886349,28.7766636 48.6708213,28.6516205 C48.5443739,27.7663857 48.4862607,26.870195 48.3292967,25.9910955 C47.5282689,21.5050293 45.4782451,17.665652 42.2550062,14.4570409 C40.6599592,12.8691693 38.871883,11.5353278 36.842301,10.541995 C36.7687104,10.5060598 36.7016904,10.4563931 36.5819597,10.3824775" id="Fill-9" fill="#FFFFFF" mask="url(#mask-10)"></path>
                </g>
                <g id="Page-1" transform="translate(1.460623, 0.000000)">
                    <g id="Group-3" fill="#FFFFFF">
                        <path d="M35.2326132,54.1223608 C26.0764747,54.1233324 16.920489,54.1022808 7.7646562,54.1351536 C4.79760564,54.1460033 2.5945985,52.0947736 1.97899169,49.5750661 C1.92839177,49.3681133 1.89323171,49.1569501 1.84584207,48.9219825 L33.0494792,48.9219825 C33.3014087,50.9599336 34.1675691,52.6762819 35.7234783,54.094508 C35.4969252,54.1077866 35.3648456,54.1221988 35.2326132,54.1223608 M47.798972,24.9607953 L47.798972,24.5600064 L46.1595959,24.5600064 L46.1595959,25.1541456 C46.1595959,32.6564288 46.161889,40.158874 46.1547041,47.6613191 C46.1542455,48.1714142 46.1215313,48.6883104 46.0394402,49.1904706 C45.3295127,53.539395 40.2085262,55.6160485 36.9374176,52.887445 C35.4917276,51.6813537 34.7286014,50.102812 34.6552239,48.1524678 C34.6364209,47.6533843 34.4288237,47.2921075 34.0793632,47.2104923 C33.8708488,47.1619118 33.6494933,47.1620738 33.4336411,47.1619118 C24.7081368,47.1598067 15.9826326,47.1601305 7.25712836,47.1601305 L6.7521993,47.1601305 L6.7521993,1.90029017 L7.31476028,1.90029017 L31.5042709,1.90029017 C36.2427771,1.90029017 40.9812832,1.90417661 45.7200951,1.89235536 C46.0697084,1.89154568 46.1735071,1.98935438 46.167698,2.36390986 C46.1467548,3.68578467 46.1595959,5.00846915 46.1595959,6.33082976 L46.1595959,7.1034213 L47.798972,7.1034213 C47.798972,5.17105182 47.7991248,3.2825667 47.798972,1.39424352 C47.798972,0.40012501 47.5685971,0.159003904 46.6197341,0.159003904 L6.26561463,0.159003904 C6.15096226,0.159003904 6.03615701,0.155279401 5.92165751,0.160785189 C5.40786201,0.184589623 5.09432598,0.513965263 5.07353568,1.05239889 C5.06772663,1.20056935 5.07185412,1.34922561 5.07185412,1.49771994 L5.07185412,46.5923867 L5.07185412,47.1601305 C4.81839594,47.1601305 4.62792013,47.1599686 4.43775006,47.1601305 C3.31675558,47.1604544 2.19576111,47.1518719 1.07491951,47.1643408 C0.428738729,47.171466 0.140884837,47.4971171 0.153114423,48.1714142 C0.158617737,48.4677551 0.164426791,48.7671727 0.205395905,49.0594653 C0.765052358,53.0501896 3.77643517,55.8539309 7.57891935,55.8592748 C18.5080422,55.8740109 29.4373179,55.8647806 40.3665936,55.863809 C41.5572968,55.863809 42.6981643,55.6090853 43.7456284,55.002801 C46.4023532,53.4652288 47.7847551,51.0826803 47.7928572,47.8724823 C47.8119659,40.2353073 47.798972,32.5979703 47.798972,24.9607953" id="Fill-1"></path>
                    </g>
                    <path d="M47.4975746,20.3667305 C42.7453258,25.6370284 37.9952313,30.9097173 33.2357501,36.1721593 C33.1095692,36.311858 32.8885988,36.4088616 32.7087141,36.4153512 C31.9699405,36.4423346 31.2297819,36.4266228 30.4205316,36.4266228 C36.0455828,30.1967071 41.6204694,24.022466 47.1879698,17.8562516 C46.7660333,17.3770405 46.4011859,16.9628969 46.0224894,16.5332122 C40.4591437,22.7209449 34.9044153,28.8989432 29.3498407,35.0767707 C29.3098322,35.0552523 29.2695158,35.0335631 29.2293534,35.0120448 C29.2293534,34.3248225 29.2592059,33.6358924 29.2198129,32.9515735 C29.1893448,32.4255684 29.3461476,32.0659038 29.6836045,31.6925768 C35.7501349,24.98345 41.8031239,18.2589529 47.8567285,11.5354806 C47.9647516,11.4154216 48.0459998,11.2656468 48.1651022,11.0929873 C49.1734721,12.6274535 49.5927927,14.2384295 49.4333739,16.0241144 C49.2802642,17.7377297 48.5845767,19.1608468 47.4975746,20.3667305 M48.9588107,9.32079413 C48.4737837,8.75311849 48.0458459,8.74287163 47.5471237,9.29620168 C41.0186482,16.540385 34.4915576,23.7862761 27.9595429,31.0265314 C27.6754821,31.3416221 27.5534559,31.6862579 27.5573029,32.1290927 C27.5705365,33.5947342 27.5554563,35.0605465 27.5676128,36.526188 C27.5702287,36.8320566 27.501137,37.0547548 27.2975549,37.2733544 C26.5329296,38.0948104 25.7807685,38.9309536 25.0399944,39.7785391 C24.8373356,40.0102887 24.6342152,40.1062676 24.340306,40.1055844 C19.7885617,40.0955084 15.2366635,40.0984116 10.6847653,40.0984116 L10.224359,40.0984116 L10.224359,41.9006623 L28.3730161,41.9006623 L28.3730161,40.0784303 L27.0748919,40.0784303 C27.5968498,39.5093884 28.0312506,39.0043893 28.5002741,38.5425978 C28.6535377,38.3916275 28.8954357,38.2789122 29.0988639,38.275155 C30.4063748,38.2515872 31.7145012,38.2488547 33.0221659,38.2705439 C33.4941132,38.2783998 33.8474196,38.1048865 34.179183,37.7353166 C37.98923,33.491241 41.8088175,29.2579246 45.625789,25.0213634 C46.7135605,23.8137718 47.8199513,22.62582 48.8840254,21.3927821 C51.8431209,17.9631605 51.8669722,12.7237739 48.9588107,9.32079413" id="Fill-4" fill="#FFFFFF"></path>
                    <path d="M25.569591,12.1811745 C24.2919844,12.192756 23.2650093,11.0053158 23.2519988,9.50202999 C23.2398461,8.07385885 24.3065676,6.85233574 25.564301,6.8544866 C26.830041,6.85663746 27.8705984,8.07716787 27.8704554,9.55993777 C27.8703125,10.9728874 26.8196039,12.1699238 25.569591,12.1811745 M25.5635862,5.07886882 C23.4533048,5.07754521 21.7270488,7.05468204 21.7267629,9.47307611 C21.726334,11.9750228 23.4195632,13.9639067 25.5520054,13.9668848 C27.6515638,13.969532 29.3841105,11.9875971 29.3949765,9.57102297 C29.4062713,7.08677949 27.6947416,5.08035787 25.5635862,5.07886882" id="Fill-6" fill="#FFFFFF"></path>
                    <mask id="mask-12" fill="white">
                        <use xlink:href="#path-11"></use>
                    </mask>
                    <g id="Clip-9"></g>
                    <polygon id="Fill-8" fill="#FFFFFF" mask="url(#mask-12)" points="12.7804487 19.352239 34.5072115 19.352239 34.5072115 17.7760385 12.7804487 17.7760385"></polygon>
                    <polygon id="Fill-10" fill="#FFFFFF" mask="url(#mask-12)" points="10.224359 23.1613901 31.9511218 23.1613901 31.9511218 21.5851896 10.224359 21.5851896"></polygon>
                    <polygon id="Fill-11" fill="#FFFFFF" mask="url(#mask-12)" points="10.224359 30.7796923 25.5608974 30.7796923 25.5608974 29.2034919 10.224359 29.2034919"></polygon>
                    <polygon id="Fill-12" fill="#FFFFFF" mask="url(#mask-12)" points="29.3950321 43.4768627 42.1754808 43.4768627 42.1754808 41.9006623 29.3950321 41.9006623"></polygon>
                    <polygon id="Fill-13" fill="#FFFFFF" mask="url(#mask-12)" points="8.9463141 11.7339368 20.4487179 11.7339368 20.4487179 10.1577363 8.9463141 10.1577363"></polygon>
                    <polygon id="Fill-14" fill="#FFFFFF" mask="url(#mask-12)" points="8.9463141 15.5430879 20.4487179 15.5430879 20.4487179 13.9668874 8.9463141 13.9668874"></polygon>
                    <polygon id="Fill-15" fill="#FFFFFF" mask="url(#mask-12)" points="8.9463141 7.92478565 20.4487179 7.92478565 20.4487179 6.34858519 8.9463141 6.34858519"></polygon>
                    <polygon id="Fill-16" fill="#FFFFFF" mask="url(#mask-12)" points="19.1706731 26.9705412 28.1169872 26.9705412 28.1169872 25.3943408 19.1706731 25.3943408"></polygon>
                    <polygon id="Fill-17" fill="#FFFFFF" mask="url(#mask-12)" points="10.224359 26.9705412 17.8926282 26.9705412 17.8926282 25.3943408 10.224359 25.3943408"></polygon>
                </g>
            </g>
            <text id="" font-family="SourceHanSansCN-Bold, Source Han Sans CN" font-size="18" font-weight="bold" line-spacing="20" fill="#FFFFFF">
                <tspan x="83" y="33"></tspan>
            </text>
            <text id="" font-family="SourceHanSansCN-Bold, Source Han Sans CN" font-size="18" font-weight="bold" line-spacing="20" fill="#FFFFFF">
                <tspan x="83" y="133"></tspan>
            </text>
            <text id="" font-family="SourceHanSansCN-Bold, Source Han Sans CN" font-size="18" font-weight="bold" line-spacing="20" fill="#FFFFFF">
                <tspan x="83" y="327"></tspan>
            </text>
            <text id="" font-family="SourceHanSansCN-Bold, Source Han Sans CN" font-size="18" font-weight="bold" line-spacing="20" fill="#FFFFFF">
                <tspan x="83" y="225"></tspan>
            </text>
            <text id="" font-family="SourceHanSansCN-Bold, Source Han Sans CN" font-size="18" font-weight="bold" line-spacing="20" fill="#FFFFFF">
                <tspan x="83" y="426"></tspan>
            </text>
        </g>
    </g>
</svg>