<?xml version="1.0" encoding="UTF-8"?>
<svg width="320px" height="320px" viewBox="0 0 320 320" version="1.1" xmlns="http://www.w3.org/2000/svg" xmlns:xlink="http://www.w3.org/1999/xlink">
    <!-- Generator: Sketch 49.1 (51147) - http://www.bohemiancoding.com/sketch -->
    <title>Group 4</title>
    <desc>Created with Sketch.</desc>
    <defs></defs>
    <g id="Page-1" stroke="none" stroke-width="1" fill="none" fill-rule="evenodd">
        <g id="关于乙烯" transform="translate(0.000000, -564.000000)">
            <g id="2" transform="translate(0.000000, 365.000000)">
                <g id="Group-4" transform="translate(0.000000, 199.000000)">
                    <rect id="Rectangle-14" fill="#FAFAFA" x="0" y="0" width="320" height="320"></rect>
                    <circle id="pic_circle" stroke="#FFFFFF" stroke-width="24" cx="160.5" cy="160.5" r="92.5"></circle>
                    <text id="vinyl" font-family="Raleway, SourceHanSansCN-Bold, Source Han Sans CN, Arial" font-size="20" font-weight="bold" line-spacing="20" fill="#000000">
                        <tspan x="81" y="171">vinyl</tspan>
                    </text>
                    <g id="Path-8-Copy-4" transform="translate(162.000000, 230.500000) rotate(90.000000) translate(-162.000000, -230.500000) translate(120.000000, 226.000000)" stroke="#000000" stroke-linejoin="round">
                        <g id="Path-8" transform="translate(42.000000, 4.500000) scale(1, -1) translate(-42.000000, -4.500000) ">
                            <path d="M77.5051946,4 L0.49837675,4" stroke-linecap="round"></path>
                            <polygon id="Triangle-2" transform="translate(81.000000, 4.214456) rotate(90.000000) translate(-81.000000, -4.214456) " points="81 1.21445601 85 7.21445601 77 7.21445601"></polygon>
                        </g>
                    </g>
                    <g id="Path-8-Copy-5" transform="translate(162.000000, 91.500000) rotate(90.000000) translate(-162.000000, -91.500000) translate(120.000000, 87.000000)" stroke="#000000" stroke-linejoin="round">
                        <g id="Path-8" transform="translate(42.000000, 4.500000) scale(1, -1) translate(-42.000000, -4.500000) ">
                            <path d="M77.5051946,4 L0.49837675,4" stroke-linecap="round"></path>
                            <polygon id="Triangle-2" transform="translate(81.000000, 4.214456) rotate(90.000000) translate(-81.000000, -4.214456) " points="81 1.21445601 85 7.21445601 77 7.21445601"></polygon>
                        </g>
                    </g>
                    <polygon id="Polygon-Copy-2" stroke="#D0021B" stroke-width="2" points="161 20 168 24 168 32 161 36 154 32 154 24"></polygon>
                    <polygon id="Polygon-Copy-3" stroke="#FFD400" stroke-width="2" points="161 152 168 156 168 164 161 168 154 164 154 156"></polygon>
                    <polygon id="Polygon-Copy-13" stroke="#4A90E2" stroke-width="2" points="161 283 168 287 168 295 161 299 154 295 154 287"></polygon>
                    <text id="中国“智”造" font-family="SourceHanSansCN-Bold, Source Han Sans CN" font-size="18" font-weight="bold" line-spacing="28" fill="#000000">
                        <tspan x="185" y="34">中国“智”造</tspan>
                    </text>
                    <text id="全球化品牌" font-family="SourceHanSansCN-Bold, Source Han Sans CN" font-size="18" font-weight="bold" line-spacing="28" fill="#000000">
                        <tspan x="185" y="297">全球化品牌</tspan>
                    </text>
                    <text id="收集需求" font-family="SourceHanSansCN-Light, Source Han Sans CN" font-size="12" font-weight="300" line-spacing="28" fill="#000000">
                        <tspan x="88" y="88">收集需求</tspan>
                    </text>
                    <text id="定制化整合营销" font-family="SourceHanSansCN-Light, Source Han Sans CN" font-size="12" font-weight="300" line-spacing="28" fill="#000000">
                        <tspan x="186" y="221">定制化整合营销</tspan>
                    </text>
                </g>
            </g>
        </g>
    </g>
</svg>