<?xml version="1.0" encoding="UTF-8"?>
<svg width="181px" height="100px" viewBox="0 0 181 100" version="1.1" xmlns="http://www.w3.org/2000/svg" xmlns:xlink="http://www.w3.org/1999/xlink">
    <!-- Generator: Sketch 49.1 (51147) - http://www.bohemiancoding.com/sketch -->
    <title>Group</title>
    <desc>Created with Sketch.</desc>
    <defs></defs>
    <g id="Page-1" stroke="none" stroke-width="1" fill="none" fill-rule="evenodd">
        <g id="关于乙烯-" transform="translate(-700.000000, -857.000000)" stroke="#4A90E2" stroke-width="2">
            <g id="好的中国品牌理应走出海外" transform="translate(153.000000, 566.000000)">
                <g id="Group" transform="translate(548.000000, 293.000000)">
                    <polygon id="Polygon-Copy-4" points="20.5 47 41 58.75 41 82.25 20.5 94 -4.30766534e-14 82.25 -5.59552404e-14 58.75"></polygon>
                    <polygon id="Polygon-Copy-7" points="130.5 47 151 58.75 151 82.25 130.5 94 110 82.25 110 58.75"></polygon>
                    <polygon id="Polygon-Copy-5" points="49.5 0 70 11.75 70 35.25 49.5 47 29 35.25 29 11.75"></polygon>
                    <polygon id="Polygon-Copy-8" points="104.5 0 125 11.75 125 35.25 104.5 47 84 35.25 84 11.75"></polygon>
                    <polygon id="Polygon-Copy-6" points="76.5 49 97 60.75 97 84.25 76.5 96 56 84.25 56 60.75"></polygon>
                    <polygon id="Polygon-Copy-9" points="158.5 0 179 11.75 179 35.25 158.5 47 138 35.25 138 11.75"></polygon>
                </g>
            </g>
        </g>
    </g>
</svg>