<svg width="118" height="114" xmlns="http://www.w3.org/2000/svg"><g fill="#FFF" fill-rule="evenodd"><path fill-opacity=".332" d="M59 20l25.98 15v30L59 80 33.02 65V35z"/><path d="M64.137 23.215l-5.607-3.242-5.61 3.243L35.25 13 15.441 24.451.493 15.841 0 16.699l14.948 8.61v22.9L32.62 58.426v6.486l5.61 3.243V88.58l19.806 11.45V109h.988v-8.97L78.83 88.58V68.154l5.61-3.243v-6.488l17.667-10.214V25.333L118 16.704l-.471-.869-15.892 8.629L81.807 13l-17.67 10.215zM84.44 34.953L66.112 24.357l15.695-9.074 18.325 10.595v21.188L84.44 56.138V34.953zM16.924 47.066V25.878l18.325-10.595 15.697 9.075L32.62 34.953V56.14l-15.696-9.075zm38.625 1.143V24.736l-1.641-.949 4.622-2.672 4.62 2.671-1.644.95v21.651l-3.47 1.81v5.46L38.23 65.106v1.906l-4.621-2.673v-5.344l1.641.949 20.3-11.736zm7.932-22.33l1.644-.951L82.92 35.216 63.48 45.356V25.878zm-14.6 17.809l-14.776-8.452 17.828-10.307 1.64.95v21.187L35.25 57.661l-1.641-.949V36.09l14.783 8.456.49-.858zm14.6 3.378v-.594l19.972-10.419V56.71l-1.646.952L63.48 47.066zm15.35 18.041L59.023 53.656v-4.859l2.482-1.295v.707l20.3 11.736 1.647-.951v5.346l-4.623 2.672v-1.905zM59.023 55.94l17.831 10.31v1.904L59.024 78.463V55.94zm-18.82 12.214v-1.905L58.037 55.94v22.523l-17.831-10.31zm36.651 1.142v18.142L58.53 98.032 40.205 87.438V69.296L58.53 79.89l18.325-10.594z"/><path d="M97.484 81.988V74.38l6.064-3.25v7.258l-6.064 3.6zm-7.032-10.857l6.064 3.249v7.608l-6.064-3.6v-7.257zm12.562-.836L97 73.517l-6.014-3.222L97 66.724l6.014 3.57zM89 69.75v9.5L97 84l8-4.75v-9.5L97 65l-8 4.75zM12 0L5 4v8l7 4 7-4V4l-7-4zM7.085 4.55L12 1.742l4.915 2.808L12 7.085 7.085 4.55zm5.424 3.407l4.966-2.562v5.734l-4.966 2.839V7.957zm-5.984 3.172V5.395l4.967 2.562v6.011l-4.967-2.84z"/></g></svg>