<svg width="106" height="114" xmlns="http://www.w3.org/2000/svg"><g fill="#FFF" fill-rule="evenodd"><path fill-opacity=".233" d="M72 53h32v61H72z"/><path d="M61.536 94.91h3.996c0-1.421-.081-2.713.04-3.985.048-.506.496-1.33.848-1.379.904-.124.95.707.953 1.4.005 1.463-.01 2.927.003 4.39.007.938-.404 1.37-1.37 1.346-1.502-.037-3.012.055-4.51-.05-.448-.03-1.175-.475-1.235-.824-.151-.877.622-.9 1.275-.899zM66.497 100.379c-.801-.124-.96.604-.962 1.28-.005 1.293-.001 2.586-.001 4.086-1.496 0-2.829-.063-4.149.037-.411.032-.79.504-1.182.774.398.317.778.877 1.197.907 1.539.11 3.09.018 4.635.054.984.022 1.349-.455 1.341-1.374-.012-1.505.062-3.015-.043-4.514-.032-.455-.488-1.197-.836-1.25M34.04 89.202c-.835-.162-.97.594-.978 1.254-.019 1.291-.006 2.582-.006 4.033-1.453 0-2.706-.003-3.959.002-.658.002-1.356.058-1.353.926.004.877.735.903 1.372.91 1.466.02 2.933-.003 4.399.01.926.007 1.398-.395 1.386-1.357-.018-1.51.06-3.024-.043-4.526-.03-.454-.465-1.184-.818-1.252M61.399 83.695c-.418.034-.799.53-1.196.813.397.328.774.908 1.193.94 1.543.115 3.097.042 4.648.052.957.007 1.347-.478 1.334-1.407-.02-1.467.007-2.935-.009-4.403-.006-.634-.02-1.456-.883-1.32-.377.06-.86.824-.91 1.308-.13 1.242-.043 2.507-.043 3.978-1.477 0-2.812-.066-4.134.04M34.857 101.272c-.03-.45-.48-1.174-.833-1.236-.837-.147-.954.614-.963 1.272-.017 1.29-.005 2.58-.005 4.016-1.467 0-2.721-.004-3.976.002-.662.003-1.42.092-1.29.933.054.356.774.834 1.22.866 1.5.109 3.014.034 4.522.046.937.007 1.382-.423 1.37-1.373-.02-1.51.06-3.024-.045-4.526M55.6 78.364c-.364.07-.81.79-.852 1.25-.117 1.28-.04 2.58-.04 4.041-1.486 0-2.787-.077-4.07.042-.444.041-.842.568-1.262.872.418.31.818.852 1.257.884 1.5.112 3.013.03 4.521.05 1.02.014 1.422-.482 1.402-1.471-.03-1.468.001-2.936-.012-4.403-.006-.652-.082-1.432-.944-1.265M44.775 78.364c-.364.07-.811.79-.853 1.25-.116 1.28-.04 2.58-.04 4.041-1.485 0-2.786-.077-4.069.042-.444.041-.843.568-1.262.872.418.31.818.852 1.256.884 1.5.112 3.014.03 4.522.05 1.02.014 1.421-.482 1.401-1.471-.029-1.468.002-2.936-.011-4.403-.006-.652-.082-1.432-.944-1.265M28.904 85.452c1.543.1 3.097.036 4.648.049.949.007 1.363-.454 1.35-1.392-.02-1.426.01-2.852-.009-4.277-.008-.655.096-1.503-.878-1.503-1.03 0-.946.874-.955 1.58-.016 1.205-.005 2.41-.005 3.747-1.461 0-2.798-.077-4.116.044-.428.04-.809.598-1.21.918.39.291.766.807 1.175.834M65.98 74.669c1.019.013 1.421-.483 1.401-1.472-.029-1.467.002-2.936-.011-4.403-.006-.652-.082-1.432-.944-1.265-.364.071-.811.79-.853 1.25-.116 1.28-.04 2.58-.04 4.041-1.485 0-2.786-.076-4.07.043-.444.04-.842.567-1.262.872.418.309.818.851 1.257.883 1.5.112 3.014.031 4.522.05M55.264 74.662c.884 0 1.293-.443 1.286-1.324-.011-1.51.007-3.019-.006-4.529-.006-.646-.072-1.451-.926-1.275-.38.079-.82.858-.87 1.354-.124 1.24-.041 2.5-.041 3.932-1.472 0-2.771-.076-4.053.042-.449.04-.854.558-1.279.857.413.314.808.868 1.242.899 1.542.11 3.097.042 4.647.044M39.893 72.822c-.665.003-1.42.104-1.277.945.06.358.784.822 1.233.854 1.5.108 3.013.034 4.522.045.945.007 1.369-.443 1.357-1.386-.02-1.467.006-2.935-.01-4.403-.005-.629.021-1.382-.871-1.388-.949-.005-.956.77-.962 1.453-.013 1.247-.004 2.494-.004 3.878-1.477 0-2.733-.004-3.988.002M29.067 72.822c-.664.003-1.42.104-1.277.945.06.358.784.822 1.233.854 1.501.108 3.014.034 4.522.045.945.007 1.37-.443 1.357-1.386-.02-1.467.006-2.935-.009-4.403-.006-.629.02-1.382-.872-1.388-.948-.005-.955.77-.962 1.453-.013 1.247-.003 2.494-.003 3.878-1.477 0-2.733-.004-3.989.002M33.495 42.164c1.015.014 1.43-.47 1.41-1.464-.03-1.425.005-2.851-.011-4.277-.007-.671.016-1.543-.938-1.391-.363.057-.81.86-.86 1.36-.123 1.239-.04 2.498-.04 3.924-1.479 0-2.779-.076-4.061.042-.446.04-.848.563-1.27.865.415.312.812.858 1.25.891 1.499.112 3.012.03 4.52.05M44.424 42.158c.877.002 1.306-.422 1.3-1.31-.01-1.509.008-3.019-.005-4.528-.006-.643-.055-1.453-.913-1.29-.38.073-.833.847-.883 1.34-.126 1.24-.041 2.502-.041 3.946-1.46 0-2.759-.076-4.04.04-.452.042-.863.55-1.293.844.408.319.799.881 1.228.912 1.542.112 3.097.044 4.647.046M50.67 42.117c1.5.108 3.013.033 4.52.045.943.007 1.375-.435 1.363-1.38-.02-1.51.06-3.024-.045-4.527-.032-.447-.49-1.17-.841-1.227-.838-.14-.947.624-.955 1.28-.016 1.289-.005 2.578-.005 4.008-1.473 0-2.729-.004-3.985.002-.662.003-1.42.098-1.281.94.058.357.78.827 1.228.859M61.592 42.154c1.466.019 2.933-.004 4.399.009.926.008 1.398-.394 1.386-1.356-.018-1.51.06-3.024-.042-4.527-.031-.454-.466-1.183-.82-1.252-.835-.162-.968.593-.977 1.254-.018 1.291-.005 2.583-.005 4.034-1.454 0-2.707-.004-3.96.001-.658.003-1.356.057-1.353.925.004.88.735.904 1.372.912M29.064 51.152c-.665.004-1.42.107-1.274.948.062.358.786.82 1.236.852 1.5.107 3.014.033 4.522.045.947.007 1.367-.448 1.354-1.39-.02-1.467.006-2.935-.009-4.402-.006-.63.018-1.383-.875-1.385-.948-.003-.952.773-.959 1.456-.013 1.247-.003 2.493-.003 3.875-1.418 0-2.705-.005-3.992.001M44.83 45.866c-.378.063-.855.828-.906 1.314-.128 1.242-.042 2.507-.042 3.97-1.44 0-2.735-.073-4.014.04-.46.041-1.187.475-1.256.832-.162.847.61.957 1.262.966 1.466.018 2.933-.01 4.4.013.985.015 1.474-.394 1.456-1.418-.028-1.468.004-2.936-.011-4.404-.007-.635-.027-1.455-.89-1.313M50.772 52.989c1.466.018 2.933-.004 4.4.008.929.008 1.392-.402 1.38-1.36-.019-1.51.06-3.025-.043-4.527-.031-.453-.47-1.18-.824-1.248-.835-.157-.963.601-.973 1.26-.017 1.29-.005 2.582-.005 4.028-1.457 0-2.71-.003-3.965.002-.659.002-1.355.063-1.346.93.007.878.74.899 1.376.907M61.531 51.19c-.463.04-1.193.462-1.267.82-.173.846.593.968 1.248.977 1.467.02 2.934-.015 4.4.016 1.081.023 1.5-.485 1.472-1.534-.037-1.425 0-2.851-.014-4.277-.007-.633-.015-1.456-.878-1.325-.377.057-.866.818-.916 1.3-.13 1.244-.044 2.51-.044 3.984-1.428 0-2.723-.074-4 .038M34.037 56.698c-.834-.16-.966.596-.976 1.256-.017 1.291-.005 2.582-.005 4.031-1.455 0-2.708-.004-3.96.002-.66.002-1.357.06-1.352.927.006.879.738.901 1.374.91 1.467.018 2.933-.004 4.4.008.927.008 1.395-.398 1.383-1.358-.018-1.51.06-3.024-.043-4.527-.03-.453-.467-1.182-.82-1.25M39.84 62.026c-.452.041-.862.551-1.291.847.41.318.801.878 1.231.909 1.542.112 3.097.043 4.647.046.878 0 1.303-.428 1.297-1.313-.01-1.51.007-3.02-.005-4.529-.006-.643-.059-1.452-.916-1.285-.38.073-.83.848-.88 1.342-.126 1.24-.041 2.501-.041 3.942-1.464 0-2.762-.075-4.043.041M55.154 63.834c1.02.013 1.422-.483 1.402-1.472-.03-1.467.001-2.935-.012-4.403-.006-.652-.082-1.432-.944-1.264-.364.07-.81.79-.853 1.248-.116 1.282-.04 2.582-.04 4.043-1.485 0-2.786-.077-4.069.042-.444.04-.843.567-1.262.872.418.31.818.851 1.257.884 1.5.111 3.013.03 4.521.05M67.333 57.922c-.031-.446-.492-1.168-.844-1.225-.837-.137-.944.627-.951 1.283-.017 1.29-.005 2.578-.005 4.005-1.477 0-2.732-.004-3.988.002-.664.003-1.42.102-1.279.943.06.358.783.824 1.232.856 1.5.108 3.014.034 4.522.046.944.007 1.37-.44 1.359-1.385-.02-1.509.06-3.023-.046-4.525M86.491 89.064c1.078.115 2.187.128 3.26-.008.4-.051 1-.593 1.049-.97.14-1.115.128-2.266.01-3.387-.037-.363-.58-.673-.892-1.008-.294.347-.772.66-.84 1.047-.133.764-.039 1.569-.039 2.542-.976 0-1.749-.107-2.47.04-.42.088-.757.582-1.131.893.35.298.677.81 1.053.85M86.5 80.042c4.036.583 4.607.038 4.374-4.004-.038-.66-.13-1.421-.967-1.276-.353.062-.739.773-.839 1.246-.143.675-.036 1.403-.036 2.273-.968 0-1.741-.105-2.464.04-.418.085-.755.572-1.128.878.352.292.674.788 1.06.843M80.908 83.687c-.285.349-.751.668-.817 1.054-.13.767-.038 1.571-.038 2.545-.94 0-1.784-.091-2.59.04-.382.063-.695.553-1.038.85.335.308.647.842 1.012.882 1.078.12 2.19.147 3.26-.004.412-.058 1-.655 1.06-1.07.15-1.07.125-2.185.009-3.264-.04-.371-.559-.69-.858-1.033M81.793 75.685c-.271-.352-.595-.663-.898-.99-.281.34-.743.65-.805 1.026-.126.767-.038 1.57-.038 2.56-.927 0-1.688-.095-2.409.035-.434.078-.806.505-1.206.775.392.33.782.946 1.175.948 4.859.02 4.145.65 4.199-3.862.002-.167.063-.386-.018-.492M95.529 87.323c-.388.065-.71.528-1.06.812.36.325.69.878 1.086.93 1.03.132 2.087.052 3.134.041.767-.008 1.151-.42 1.154-1.181.005-1.048.073-2.104-.04-3.139-.043-.388-.515-.73-.792-1.092-.33.358-.865.675-.948 1.083-.153.756-.044 1.566-.044 2.507-.923 0-1.725-.09-2.49.039M77.537 69.29c-.41.077-.746.565-1.116.867.348.285.674.777 1.047.815 1.074.11 2.181.137 3.247-.012.405-.056.987-.644 1.043-1.05.146-1.068.12-2.176.003-3.25-.038-.356-.564-.658-.867-.985-.281.338-.743.646-.805 1.019-.125.768-.037 1.572-.037 2.556-.949 0-1.754-.1-2.515.04M80.723 61.926c.403-.055.979-.648 1.035-1.056.146-1.065.121-2.172.005-3.245-.04-.358-.564-.664-.867-.993-.28.34-.743.649-.806 1.025-.126.765-.037 1.565-.037 2.526-.973 0-1.782-.104-2.542.043-.407.078-.731.59-1.093.907.353.281.685.766 1.063.805 1.073.11 2.179.137 3.242-.012M86.484 61.937a14.62 14.62 0 0 0 3.262-.005c.399-.049 1.005-.57 1.05-.935.14-1.116.127-2.267.01-3.387-.036-.353-.587-.652-.903-.975-.287.343-.76.655-.825 1.036-.13.768-.038 1.574-.038 2.517-1.011 0-1.822-.097-2.592.041-.376.068-.674.573-1.007.88.346.29.67.79 1.043.828M86.674 69.289c-.452.094-.824.569-1.232.873.39.284.757.76 1.175.812.987.12 2 .015 3 .046.868.027 1.22-.442 1.242-1.219.029-1.002.098-2.016-.034-3.001-.053-.409-.58-.754-.89-1.128-.3.371-.782.709-.858 1.12-.14.76-.04 1.563-.04 2.458-.886 0-1.651-.109-2.363.039M89.902 101.765c-.287.346-.758.662-.824 1.046-.13.768-.038 1.574-.038 2.516-.982 0-1.756-.109-2.475.041-.42.089-.752.592-1.124.909.352.288.682.786 1.06.827 1.078.114 2.186.131 3.259-.003.397-.05.994-.596 1.041-.973.14-1.115.126-2.266.01-3.387-.038-.353-.592-.652-.91-.976M80.877 101.763c-.274.304-.735.58-.783.916-.115.81-.037 1.647-.037 2.65-.992 0-1.797-.091-2.565.039-.39.066-.713.532-1.067.816.323.318.622.875.97.908 1.155.11 2.334.094 3.49-.015.326-.03.84-.526.867-.843a21.387 21.387 0 0 0-.001-3.623c-.026-.305-.57-.567-.874-.848M99.85 76.056c0-.084.03-.194-.012-.247-.3-.377-.613-.742-.922-1.111-.301.385-.778.735-.863 1.163-.144.72-.04 1.49-.04 2.419-.898 0-1.627-.11-2.3.038-.46.101-.84.563-1.256.863.39.3.78.858 1.17.86 4.795.005 4.183.723 4.223-3.985M99.84 102.999c-.294-.423-.616-.826-.928-1.236-.3.43-.76.825-.864 1.299-.149.67-.038 1.399-.038 2.265-.947 0-1.72-.109-2.437.042-.415.087-.742.591-1.11.908.351.289.669.774 1.056.837 3.946.643 4.402.23 4.333-3.744-.002-.126.047-.286-.011-.371M95.391 70.975c3.896.687 4.924-.29 4.416-4.22-.05-.395-.597-.725-.914-1.085-.292.35-.77.666-.837 1.054-.133.768-.04 1.574-.04 2.528-.978 0-1.785-.095-2.551.04-.375.067-.674.561-1.007.862.31.284.585.76.933.821M95.567 61.939c1.032.127 2.089.03 3.135.045.806.013 1.136-.414 1.141-1.164.007-1.005.085-2.021-.035-3.012-.052-.417-.535-.783-.82-1.172-.326.402-.833.763-.935 1.215-.159.706-.042 1.474-.042 2.333-.922 0-1.724-.093-2.488.04-.39.066-.71.538-1.062.827.366.31.707.838 1.106.888M80.936 92.719c-.294.332-.783.633-.843 1.004-.13.802-.04 1.64-.04 2.623-.957 0-1.794-.09-2.598.038-.373.06-.68.54-1.017.829.337.293.652.803 1.014.838 1.115.109 2.256.111 3.369-.009.355-.037.901-.562.936-.906.116-1.156.104-2.338.001-3.497-.03-.329-.535-.615-.822-.92M86.528 96.379c-.394.063-.727.5-1.088.77.358.314.689.852 1.08.901 1.027.13 2.081.036 3.124.05.775.01 1.185-.395 1.21-1.128.035-1.084.079-2.18-.045-3.25-.041-.364-.58-.67-.89-1.002-.293.34-.773.648-.839 1.027-.131.768-.039 1.574-.039 2.596-.955 0-1.751-.087-2.513.036M98.967 92.722c-.319.411-.815.785-.916 1.245-.155.712-.04 1.484-.04 2.374-.866 0-1.629-.097-2.348.036-.434.08-.802.52-1.199.798.37.306.713.827 1.114.876 1.031.126 2.088.042 3.134.042.793 0 1.127-.44 1.131-1.187.006-1.006.088-2.021-.036-3.011-.053-.42-.546-.784-.84-1.173M47.393 14.129c.192.583.504 1.283.943 1.374.818.172.91-.611 1.021-1.255.033-.192.244-.418.432-.509 1.09-.523 1.585-1.38 1.33-2.549-.276-1.262-1.27-1.66-2.436-1.78-.442-.046-.878-.15-1.316-.227.01-.174.021-.347.033-.52.725-.047 1.451-.1 2.177-.136.654-.032 1.484.144 1.559-.815.084-1.077-.818-.943-1.504-1.026-.073-.008-.139-.08-.208-.123l.181-.18-1.177-1.222c-.315.41-.629.82-.947 1.226-.144.183-.262.438-.453.526-1.151.53-1.683 1.421-1.366 2.636.333 1.28 1.337 1.716 2.598 1.72.38 0 .758.16 1.136.248l-.082.577c-.645 0-1.29-.016-1.935.005-.725.022-1.683-.19-1.75.901-.064 1.068.914.848 1.562.994.074.017.135.088.202.135"/><path d="M72.845 110.502h30.54v-57.61h-30.54v57.61zm5.336-59.604h19.74v-3.417H78.18v3.417zm-5.435-19.913c-.001-1.473-.19-1.658-1.668-1.67-1.24-.009-2.48-.001-3.785-.001 0-.886.003-1.555 0-2.224-.017-2.708.22-3.137-1.236-3.193.583-4.229 5.21-6.85 9.224-4.82 1.12.568 1.453.45 1.92-.679 1.783-4.313 7.165-6.547 11.484-4.788 2.761 1.125 4.568 3.103 5.441 5.947.284.921.462 1.048 1.418 1.037 3.963-.045 7.135 3.046 7.17 6.987.032 3.796-3.143 6.952-7.057 6.967-5.067.018-10.134.004-15.202.004-2.57 0-5.14.003-7.709.004v-3.57zM70.9 110.492H56.468v-1.387l-.001-18.39c0-1.745-.062-1.81-1.74-1.811-4.826-.003-9.65-.003-14.473 0-1.681.001-1.743.066-1.743 1.81V110.463H24.088v-79.25H70.9v79.28zm-22.39.005h6.118V90.775H48.51v19.722zm-8.182-.023h6.211V90.793h-6.211v19.681zm-10.81-84.669h35.91v3.407h-35.91v-3.407zm23.384-7.446v5.445h-8.94v-5.395c1.22.696 2.351 1.298 3.433 1.976.686.43 1.269.451 1.964.015 1.088-.686 2.228-1.29 3.543-2.041zM41.57 14.89c-.178-.105-.347-.396-.35-.603-.024-2.203-.015-4.407-.015-6.636.968.081 1.878 1.45 2.52.141.607-1.238-1.014-1.247-1.554-2.01 1.948-1.126 3.892-2.264 5.857-3.365.199-.11.577-.085.785.032 1.926 1.081 3.834 2.197 5.75 3.304-.519.806-2.255.823-1.515 2.112.697 1.214 1.574-.187 2.571-.262 0 2.246.02 4.479-.026 6.711-.005.247-.332.564-.588.716-1.795 1.065-3.612 2.095-5.245 3.035-.523-.558-.97-1.035-1.42-1.513-.388.453-.775.905-1.309 1.524-1.674-.97-3.576-2.063-5.461-3.186zm62.011 36.082c-1.243.052-2.49.011-3.811.011 0-1.49-.03-2.789.01-4.086.03-.976-.387-1.345-1.35-1.343-6.88.019-13.76.02-20.64-.001-1.012-.003-1.469.378-1.44 1.408.036 1.292.008 2.587.008 3.95h-3.61v-1.409-13.108c7.576-.002 15.153-.002 22.73-.003.244 0 .487-.005.73-.019 4.596-.267 8.216-4.03 8.334-8.662.115-4.513-3.371-8.424-7.929-8.864-.56-.054-.851-.225-1.094-.797-1.756-4.142-4.906-6.526-9.39-6.81-4.332-.274-7.705 1.574-10.02 5.282-.138.221-.264.45-.392.67-5.37-2.192-10.877 1.401-11.526 6.7h.905c-.277.003-.58.005-.93.005-2.727-.006-5.454.001-8.181-.004-.4-.001-.802-.042-1.279-.07 0-1.666.089-3.22-.027-4.76-.098-1.296.261-2.17 1.512-2.625 1.019-.37 1.29-1.132 1.264-2.183-.063-2.56-.045-5.123-.007-7.684.013-.846-.231-1.41-1-1.84-2.416-1.347-4.778-2.79-7.213-4.102-.445-.24-1.243-.238-1.691.002-2.433 1.312-4.796 2.756-7.21 4.104-.768.428-1.016.983-1 1.834.046 2.308.13 4.626-.022 6.925-.11 1.654.368 2.719 1.919 3.344.36.145.83.598.843.925.078 2 .04 4.005.04 6.132h-1.348c-3.776 0-7.551-.001-11.327.001-1.69.001-1.75.065-1.753 1.8-.002 1.131 0 2.263 0 3.414-.23.1-.305.16-.38.161-1.09.02-2.18.034-3.27.043-1.647.014-1.804.162-1.804 1.788-.002 26.495-.002 52.989 0 79.483 0 1.688.101 1.792 1.787 1.793 8.629.003 17.258.002 25.886.002l53.488-.001c1.67 0 1.83-.135 1.83-1.63.003-19.397-.006-38.795.02-58.194.002-1.246-.513-1.63-1.662-1.582z"/><path d="M9.18 25.635c-4.008 0-7.27-3.264-7.27-7.276 0-4.013 3.262-7.277 7.27-7.277 4.009 0 7.27 3.264 7.27 7.277 0 4.012-3.261 7.276-7.27 7.276m0-16.064C4.34 9.57.4 13.513.4 18.359c0 4.845 3.94 8.788 8.78 8.788 4.842 0 8.78-3.943 8.78-8.788 0-4.846-3.938-8.788-8.78-8.788" fill-opacity=".65"/><path d="M26.539 3.181a3.037 3.037 0 0 1 3.032 3.035 3.037 3.037 0 0 1-3.032 3.035 3.037 3.037 0 0 1-3.032-3.035 3.037 3.037 0 0 1 3.032-3.035m0 6.574a3.541 3.541 0 0 0 3.536-3.539 3.541 3.541 0 0 0-3.536-3.539 3.541 3.541 0 0 0-3.536 3.54 3.541 3.541 0 0 0 3.536 3.538" fill-opacity=".844"/></g></svg>