<svg width="88" height="114" xmlns="http://www.w3.org/2000/svg" xmlns:xlink="http://www.w3.org/1999/xlink"><defs><path id="a" d="M.134.137h13.019v8.948H.133z"/><path id="c" d="M.223 9.14h12.845V.193H.223v8.949z"/><path id="e" d="M0 .28v8.019h10.581V.279H0z"/></defs><g fill="none" fill-rule="evenodd"><path d="M24.928 81.203c-1.311 0-2.34-1.082-2.342-2.464 0-.604.24-1.176.676-1.612a2.365 2.365 0 0 1 1.685-.698c1.342.008 2.388 1.073 2.395 2.425.007 1.241-1.112 2.34-2.394 2.35h-.02zm-.047-74.855H4.92C1.979 6.35.002 8.322.002 11.256V83.03c0 3.019 1.956 4.97 4.983 4.97H44.88c3.068 0 5.05-1.982 5.05-5.05.002-4.91.002-9.818.002-14.726V60.33h-7.698v9.948H7.717V14.624h34.536v15.482H49.93V11.52c0-3.238-1.935-5.17-5.176-5.17-6.625-.002-13.25-.002-19.874-.002zm.047 76.638h.034c2.268-.018 4.177-1.916 4.166-4.141-.012-2.333-1.845-4.185-4.156-4.198h-.025c-2.282 0-4.149 1.84-4.146 4.093.002 2.376 1.825 4.246 4.127 4.246zM24.881 8.13c6.625 0 13.249 0 19.874.002 2.277 0 3.39 1.117 3.39 3.388v16.803h-4.107V12.842H5.931V72.06H44.02v-9.949h4.126v20.836c-.001 2.102-1.17 3.27-3.266 3.27H4.985c-2.033 0-3.198-1.16-3.198-3.188-.002-23.925-.002-47.85 0-71.775 0-1.944 1.181-3.123 3.135-3.124H24.88z" fill="#FFF"/><path d="M53.457 28c-3.918 0-7.837.002-11.754.006-3.24.003-5.688 2.361-5.694 5.486a6638.33 6638.33 0 0 0 .003 22.813c0 .733.09 1.36.271 1.912.8 2.435 2.809 3.777 5.656 3.78 2.253.002 4.506.003 6.76.003h4.272l4.271-.001h2.17l.467-1.142.012-.028c.06-.127.199-.423.199-.84V55.39c0-1.296.995-2.276 2.316-2.278l.904-.002 2.23-.003c.98 0 1.96.003 2.939.012H68.515c.756 0 1.37-.23 1.826-.685.455-.454.677-1.056.658-1.788a62.619 62.619 0 0 1-.01-2.035l.003-.88.001-4.018c.002-3.261.004-6.522-.004-9.784-.01-3.485-2.374-5.92-5.751-5.924C61.31 28.002 57.384 28 53.457 28m0 2c3.893 0 7.784.002 11.676.005 2.328.003 3.85 1.604 3.856 4.066.011 4.542.003 9.084.003 13.626 0 .975-.018 1.95.007 2.924.012.456-.157.609-.615.609h-.02a336.65 336.65 0 0 0-2.929-.012c-1.037 0-2.074.003-3.11.005-2.336.004-4.14 1.767-4.14 4.038.001 1.513.002 3.027 0 4.541 0 .038-.029.076-.078.197h-.897L48.74 60c-2.232 0-4.465 0-6.698-.003-2.01-.002-3.3-.825-3.849-2.489-.14-.424-.18-.896-.182-1.346-.01-7.508-.018-15.015-.002-22.522.004-2.122 1.602-3.632 3.799-3.634 3.882-.004 7.767-.006 11.65-.006M27.618 39H25.81l-1.805.001h-1.809L20.39 39c-.794 0-1.589 0-2.383.002-2.469.005-4.003 1.604-4.005 4.174-.003 4.22-.003 8.442 0 12.663.003 2.524 1.562 4.156 3.976 4.159a8504.617 8504.617 0 0 0 12.003 0c2.437-.002 4.014-1.646 4.016-4.19.004-4.221.004-8.442 0-12.664-.003-2.51-1.542-4.135-3.921-4.141C29.256 39 28.437 39 27.618 39m0 1.82c.818 0 1.635 0 2.453.002 1.407.004 2.19.831 2.192 2.324.005 4.22.004 8.44 0 12.66 0 1.551-.793 2.371-2.283 2.372a9094.8 9094.8 0 0 1-12.001 0c-1.46-.001-2.242-.817-2.243-2.341-.003-4.22-.003-8.44 0-12.66 0-1.573.754-2.352 2.274-2.355.793-.002 1.587-.002 2.38-.002l3.59.001h.026l3.612-.001" fill="#FFF"/><path d="M69.858 51c-2.378 0-4.756.002-7.134.005-2.86.005-4.713 1.852-4.72 4.706-.005 1.69-.004 3.378-.003 5.068v4.35c0 1.708-.001 3.417.002 5.125.007 2.874 1.85 4.734 4.697 4.74a3728.961 3728.961 0 0 0 14.555 0c2.83-.004 4.734-1.9 4.74-4.717.007-4.545.007-9.3 0-14.54-.005-2.868-1.856-4.726-4.716-4.73A3925.35 3925.35 0 0 0 69.86 51m-.002 2c2.493 0 4.984.002 7.477.007 1.708.003 2.658.962 2.66 2.676.007 4.882.008 9.765 0 14.648-.003 1.698-.973 2.66-2.683 2.663a4949.053 4949.053 0 0 1-14.667 0c-1.714-.004-2.637-.954-2.641-2.687-.005-2.454-.001-4.907-.001-7.361 0-2.429-.005-4.858.001-7.287.005-1.722.93-2.65 2.665-2.654 2.396-.003 4.792-.005 7.189-.005" fill="#FFF"/><g opacity=".328"><path d="M75.454 10.814c-4.35 0-8.7.001-13.051-.005-.211 0-.278.072-.298.277-.158 1.68-.342 3.36-.482 5.042-.073.878-.073 1.764-.108 2.67H76.32a57.1 57.1 0 0 0-.623-7.967c-.092-.007-.167-.017-.242-.017M62.238 28.327h13.367c.333-1.541.81-7.182.674-7.956H61.557c-.102.974.342 6.158.681 7.956" fill="#FFF"/><g transform="translate(62.268 .168)"><mask id="b" fill="#fff"><use xlink:href="#a"/></mask><path d="M.134 9.085h13.019c-.014-.108-.018-.204-.039-.296-.185-.823-.354-1.65-.564-2.466-.502-1.939-1.148-3.822-2.121-5.577-.101-.182-.219-.28-.43-.317C7.912.055 5.828.053 3.732.345c-.531.074-.824.306-1.065.783C1.721 3.006 1.076 4.99.585 7.031.423 7.706.286 8.387.134 9.085" fill="#FFF" mask="url(#b)"/></g><g transform="translate(62.268 29.723)"><mask id="d" fill="#fff"><use xlink:href="#c"/></mask><path d="M.223.192c.24.97.451 1.915.711 2.847.54 1.938 1.224 3.818 2.294 5.53.135.216.293.322.538.359 1.785.27 3.568.271 5.361.071.565-.063.91-.293 1.194-.798 1.4-2.493 2.152-5.21 2.747-8.009H.223z" fill="#FFF" mask="url(#d)"/></g><path d="M60.645 28.34c0-.065.004-.102-.001-.139a55.784 55.784 0 0 1-.613-7.572c-.003-.244-.105-.287-.313-.287-3.14.004-6.28.003-9.419.004-.09 0-.18.012-.279.018 0 .133-.005.23 0 .325a19.519 19.519 0 0 0 1.948 7.492c.089.183.222.18.378.18l8.016-.001c.092 0 .184-.012.283-.02M78.219 20.341c-.39 0-.38.001-.404.394-.11 1.763-.213 3.526-.345 5.288-.057.762-.18 1.519-.28 2.33h.322c2.662 0 5.324-.003 7.985.003.208.001.323-.06.417-.257a19.966 19.966 0 0 0 1.84-6.453c.046-.42.059-.844.09-1.305H78.22" fill="#FFF"/><g transform="translate(50 10.528)"><mask id="f" fill="#fff"><use xlink:href="#e"/></mask><path d="M9.63 8.299c.375 0 .359-.001.381-.374.122-2.005.245-4.011.382-6.016.036-.529.12-1.054.188-1.625h-.823c-2.472 0-4.945.003-7.416-.005-.212 0-.33.061-.41.264-.124.315-.283.615-.416.927A19.351 19.351 0 0 0 .094 6.967C.046 7.397.032 7.831 0 8.3H9.63z" fill="#FFF" mask="url(#f)"/></g><path d="M77.603 10.81h-.255l.576 7.996h9.897c.006-.076.013-.114.012-.152a19.497 19.497 0 0 0-1.917-7.587c-.091-.192-.2-.263-.413-.263-2.633.008-5.267.005-7.9.005M61.02 30.269c-.05-.265-.128-.382-.43-.38-2.424.015-4.848.008-7.272.008h-.31c-.01.03-.022.06-.034.089 2.553 3.946 6.025 6.65 10.485 8.03-.123-.35-.282-.667-.423-.993-.934-2.17-1.572-4.432-2.015-6.754M77.361 29.898c-.548 0-.432-.074-.537.441-.392 1.913-.877 3.799-1.591 5.616-.269.683-.565 1.355-.882 2.11 4.495-1.44 7.973-4.136 10.579-8.169h-.411c-2.386 0-4.772-.002-7.158.002M53.35 9.275c2.365 0 4.73-.007 7.096.008.315.003.417-.095.473-.399.456-2.486 1.1-4.917 2.112-7.236l.201-.467C58.857 2.68 55.467 5.331 52.98 9.18l.037.096h.333zM76.939 8.948c.046.247.122.334.38.333 2.413-.01 4.827-.006 7.24-.006h.363C82.374 5.35 79 2.676 74.641 1.192c.037.12.049.175.071.224 1.085 2.406 1.743 4.943 2.227 7.532" fill="#FFF"/></g></g></svg>