<svg width="85" height="114" xmlns="http://www.w3.org/2000/svg"><g transform="translate(0 1)" fill="#FFF" fill-rule="evenodd"><path d="M2.344 16H0v18.13H2.672l3.46.011c5.275.015 10.73.031 16.093.067l.05.021c5.23 3.996 10.68 8.182 16.661 12.8C40.63 48.337 42.54 49 44.612 49c4.757-.003 9.508-.004 14.258-.004H71.43c.33 0 .707 0 1.1-.037 1.722-.162 3.226-.975 4.233-2.289 1.01-1.319 1.423-3.012 1.162-4.765-.381-2.548-2.89-5.298-6.283-5.298h-.06c-1.928.02-4.026.029-6.6.029-1.467 0-2.932-.003-4.399-.006-1.468-.003-2.936-.006-4.404-.006h-.28c-.124 0-.248.006-.376.014a5.937 5.937 0 0 0-1.71-3.46c-3.814-3.804-7.707-7.652-11.47-11.375l-2.759-2.728c-2.027-2.006-4.544-3.023-7.48-3.023l-2.207.001c-6.434 0-12.979-.017-19.308-.033L2.628 16h-.284zm0 1.897h.28c9.09.02 18.182.053 27.272.053H32.103c2.409 0 4.465.784 6.187 2.488 4.745 4.694 9.496 9.383 14.222 14.098 1.583 1.579 1.586 4.062.086 5.615a3.795 3.795 0 0 1-2.741 1.165c-.99 0-1.988-.38-2.77-1.149-2.365-2.322-4.706-4.67-7.058-7.007-.158-.157-.32-.31-.527-.51L38.32 34c.145.162.269.315.407.453 2.344 2.345 4.684 4.694 7.04 7.027 1.207 1.194 2.746 1.804 4.261 1.804a5.437 5.437 0 0 0 3.337-1.13c.954-.734 1.373-1.801 1.762-2.89.083-.231.148-.468.226-.716.197-.01.372-.026.547-.026h.28c2.933 0 5.867.012 8.801.012 2.207 0 4.413-.007 6.62-.029h.041c2.343 0 4.187 1.96 4.445 3.687.378 2.534-1.22 4.643-3.727 4.879-.309.029-.62.029-.93.029H58.87c-4.75 0-9.501 0-14.253.004h-.005c-1.701 0-3.199-.54-4.555-1.587a4224.514 4224.514 0 0 0-16.684-12.817 2.019 2.019 0 0 0-1.136-.388c-6.52-.043-13.04-.057-19.56-.078h-.819V17.897h.486zM54.832 58h-.011c-2.716 0-5.001.85-6.792 2.524-.155.146-.315.286-.474.426-.262.232-.533.472-.805.742-1.93 1.915-3.858 3.831-5.787 5.748-2.52 2.504-5.04 5.01-7.564 7.511-1.122 1.112-1.75 2.307-1.914 3.641a3.048 3.048 0 0 0-.346-.02c-3.338.013-6.565.015-9.284.015l-3.705-.001H15.38c-1.463 0-2.797.463-3.964 1.38-2.135 1.673-2.933 4.339-2.083 6.955.816 2.511 2.964 4.072 5.607 4.074 4.554.003 9.107.005 13.66.005 4.642 0 9.285-.002 13.927-.008 1.965-.002 3.755-.615 5.322-1.822l5.208-4.015c3.813-2.94 7.756-5.98 11.641-8.96a.395.395 0 0 1 .029-.009c4.821-.048 9.725-.076 14.467-.104l3.12-.019.295-.001h.261l.272.001H85v-18.06h-2.719l-7.309.001-7.308.001c-4.277 0-8.555 0-12.832-.005m-.012 1.9h.01c4.278.004 8.556.005 12.834.005l14.617-.002h.862v14.26H82.305c-5.872.037-11.742.067-17.613.125a1.92 1.92 0 0 0-1.08.367c-5.636 4.32-11.254 8.664-16.879 12.997a6.768 6.768 0 0 1-4.207 1.441c-4.642.005-9.284.008-13.925.008-4.553 0-9.106-.003-13.659-.006-1.845-.001-3.29-1.06-3.846-2.772-.602-1.854-.045-3.678 1.45-4.85.843-.661 1.78-.989 2.835-.988l6.474.001c3.093 0 6.185-.002 9.278-.014h.006c.467 0 .586.218.689.604.584 2.188 1.83 3.71 4.121 4.074.372.06.735.09 1.09.09 1.583 0 3-.593 4.211-1.802 2.38-2.373 4.753-4.752 7.129-7.13.093-.093.172-.2.285-.332l-1.19-1.364c-.205.199-.379.364-.547.533-2.343 2.347-4.679 4.701-7.029 7.04-.756.752-1.707 1.136-2.683 1.136a3.897 3.897 0 0 1-1.682-.39c-1.458-.696-2.321-2.17-2.229-3.847.063-1.126.61-2 1.387-2.768 4.455-4.416 8.899-8.843 13.352-13.261.396-.394.83-.747 1.239-1.128 1.57-1.47 3.449-2.028 5.538-2.028M66.82 3l-.594.003c-.201.002-.406.003-.615.003h-.948v2.898c-.424.147-.826.289-1.23.479-2.082.981-3.259 2.683-3.402 4.921-.14 2.199.775 3.957 2.648 5.082.619.372 1.268.662 1.897.943.265.118.53.237.792.361.237.113.476.221.716.329.516.232 1.004.453 1.455.715.293.17.395.402.33.75-.052.285-.245.46-.571.518-.54.096-.972.142-1.359.142-.236 0-.454-.018-.649-.053-.768-.138-1.532-.373-2.34-.622a58.32 58.32 0 0 0-1.088-.326l-.945-.27-.239.94-.143.559c-.113.442-.232.906-.346 1.372-.455 1.85-.158 2.364 1.673 2.893.766.221 1.525.392 2.327.574l.35.078V28h4.582V24.935l.042-.014c.476-.163.967-.331 1.44-.558a5.937 5.937 0 0 0 3.377-4.926c.171-2.137-.773-4.134-2.527-5.343-.543-.375-1.123-.646-1.684-.909-.195-.09-.39-.182-.582-.277a65 65 0 0 0-1.045-.504 33.348 33.348 0 0 1-1.872-.935c-.102-.057-.19-.14-.138-.36.085-.367.265-.39.324-.398.477-.06.986-.117 1.472-.117.251 0 .476.015.686.045.561.08 1.14.26 1.751.452.292.091.587.184.888.268l.944.265.237-.936.275-1.089.534-2.107.229-.907-.922-.223-2.046-.497-1.233-.3c.003-.366 0-.76-.025-1.158-.035-.533-.49-1.33-1.221-1.375C67.677 3.01 67.305 3 66.82 3m0 .933c.387 0 .766.006 1.144.029.128.008.324.322.336.505.04.637.015 1.28.015 1.826l4.008.974-.81 3.196c-.954-.269-1.843-.616-2.763-.748a5.85 5.85 0 0 0-.822-.053c-.53 0-1.069.057-1.593.124-.605.077-.99.524-1.128 1.115-.137.588.097 1.103.597 1.38.96.531 1.972.971 2.955 1.46.725.359 1.492.662 2.15 1.117 3.156 2.176 2.748 7-.722 8.667-.622.299-1.3.489-2.014.753v2.79h-2.686V24.55c-1.18-.281-2.283-.499-3.358-.81-1.359-.391-1.351-.425-1.019-1.778.164-.665.337-1.328.488-1.924 1.202.342 2.343.758 3.523.97.266.047.54.067.818.067.51 0 1.031-.068 1.528-.156.663-.118 1.203-.55 1.336-1.27.136-.73-.15-1.35-.78-1.718-.714-.416-1.492-.725-2.241-1.081-.873-.415-1.786-.766-2.608-1.26-1.587-.954-2.312-2.42-2.196-4.228.122-1.91 1.104-3.309 2.865-4.139.544-.256 1.13-.429 1.768-.667V3.939c.416 0 .817-.006 1.209-.006M24.087 49c-.772 0-1.32.38-1.63 1.127a863.268 863.268 0 0 1-2.21 5.267l-.234.556-.043-.103c-.767-1.874-1.56-3.812-2.325-5.722-.372-.93-1.079-1.125-1.606-1.125l-.122.003c-.244.012-.51.018-.836.018-.211 0-.422-.002-.634-.004-.218-.003-.436-.005-.654-.005H10l.807 1.411.968 1.69 3.183 5.564h-3.342v4.091H16.604v.363H11.604V66.228H16.653V70H23.03v-3.801h5.1V62.11h-5.073v-.373H28.13v-4.112h-3.291l3.894-6.498.413-.687.855-1.428h-1.67c-.428 0-.846.002-1.255.003l-1.152.003c-.71 0-1.257-.005-1.777-.017L24.087 49zm0 .944h.036c.596.014 1.192.018 1.8.018.774 0 1.569-.007 2.408-.007l-5.163 8.614h4.013v2.225h-5.072v2.26h5.073v2.201h-5.1v3.801h-4.481v-3.772h-5.05v-2.21h5.002v-2.25h-4.989V58.62h4.025l-4.958-8.665h2.162c.43 0 .86.01 1.288.01a18.342 18.342 0 0 0 .958-.02c.382 0 .577.159.725.529.936 2.338 1.894 4.667 2.848 6.997.088.218.195.427.294.64l.22-.006c.102-.238.206-.475.307-.715.969-2.3 1.944-4.597 2.9-6.903.152-.367.336-.543.754-.543z"/><circle stroke="#FFF" fill-opacity=".334" cx="19.5" cy="58.5" r="15.5"/><circle stroke="#FFF" fill-opacity=".334" cx="66.5" cy="15.5" r="15.5"/></g></svg>